<?xml version="1.0" standalone="no"?>
<!DOCTYPE svg PUBLIC "-//W3C//DTD SVG 20010904//EN"
 "http://www.w3.org/TR/2001/REC-SVG-20010904/DTD/svg10.dtd">
<svg version="1.0" xmlns="http://www.w3.org/2000/svg"
 width="1300.000000pt" height="974.000000pt" viewBox="0 0 1300.000000 974.000000"
 preserveAspectRatio="xMidYMid meet">

<g transform="translate(0.000000,974.000000) scale(0.100000,-0.100000)"
fill="#000000" stroke="none">
<path d="M5390 7079 c-131 -34 -259 -80 -304 -110 -39 -26 -74 -77 -90 -130
-2 -10 -20 -19 -44 -23 -80 -12 -141 -95 -142 -190 0 -68 149 -523 187 -572
59 -74 182 -101 255 -56 36 22 84 85 90 118 2 14 -4 18 -35 19 -84 4 -118 95
-58 156 32 31 64 36 106 17 22 -10 30 -8 52 8 50 38 63 78 63 196 l0 108 63
-1 c34 0 127 -4 207 -8 114 -6 155 -5 193 6 63 18 129 79 164 151 23 47 27 71
31 167 l4 113 -82 -24 c-46 -13 -106 -27 -134 -30 -47 -5 -56 -2 -121 37 -38
23 -89 48 -114 56 -64 19 -202 15 -291 -8z"/>
<path d="M5740 6506 c-54 -9 -66 -15 -68 -32 -5 -38 15 -43 128 -29 58 8 106
14 108 14 2 1 2 13 0 29 -3 25 -6 27 -53 28 -27 1 -79 -3 -115 -10z"/>
<path d="M6089 6443 c-13 -16 -12 -17 4 -4 9 7 17 15 17 17 0 8 -8 3 -21 -13z"/>
<path d="M6903 6445 c0 -8 4 -12 9 -9 5 3 6 10 3 15 -9 13 -12 11 -12 -6z"/>
<path d="M5790 6355 c0 -18 7 -28 25 -35 33 -12 65 6 65 37 0 21 -5 23 -45 23
-41 0 -45 -2 -45 -25z"/>
<path d="M5320 6222 c0 -7 -10 -13 -22 -13 -19 -1 -20 -2 -4 -6 20 -5 44 12
33 24 -4 3 -7 1 -7 -5z"/>
<path d="M5240 5970 c0 -5 -7 -7 -15 -4 -8 4 -15 1 -15 -5 0 -6 -8 -8 -17 -5
-17 5 -17 5 0 -6 9 -6 17 -18 17 -26 0 -13 2 -13 14 -2 15 15 31 58 22 58 -3
0 -6 -4 -6 -10z"/>
<path d="M5256 5855 c3 -7 12 -16 19 -19 9 -3 12 0 9 9 -3 7 -12 16 -19 19 -9
3 -12 0 -9 -9z"/>
<path d="M5466 5763 c-2 -3 -2 -12 1 -21 3 -13 1 -13 -11 2 -16 19 -16 19 -16
-2 0 -28 26 -29 40 -1 9 16 14 18 26 8 8 -6 14 -19 14 -27 0 -13 2 -14 13 -3
10 10 7 16 -12 29 -25 17 -47 23 -55 15z"/>
<path d="M9716 5488 c-23 -32 -20 -74 6 -98 12 -11 25 -20 30 -20 4 0 8 -82 8
-182 l0 -183 -45 -28 c-85 -54 -83 -45 -85 -367 -1 -232 2 -289 13 -304 9 -13
13 -34 10 -57 -4 -24 0 -45 12 -63 l17 -26 159 0 c148 0 160 1 180 21 11 11
18 23 15 26 -2 3 -58 5 -123 4 -65 -1 -125 3 -133 9 -20 12 -26 256 -11 426
15 176 39 417 52 516 6 48 9 102 7 120 -3 33 -3 33 44 36 30 2 48 8 52 18 10
26 -3 34 -50 34 -43 0 -44 1 -44 33 0 17 -3 49 -6 70 -6 36 -8 37 -50 37 -33
0 -46 -5 -58 -22z"/>
<path d="M4970 5444 c0 -3 11 -20 25 -38 14 -18 25 -42 25 -53 0 -12 13 -25
35 -36 49 -23 55 -22 55 13 0 39 -79 120 -116 120 -13 0 -24 -3 -24 -6z"/>
<path d="M8636 5375 c4 -8 8 -15 10 -15 2 0 4 7 4 15 0 8 -4 15 -10 15 -5 0
-7 -7 -4 -15z"/>
<path d="M4951 5354 c0 -11 3 -14 6 -6 3 7 2 16 -1 19 -3 4 -6 -2 -5 -13z"/>
<path d="M4967 5262 c-23 -25 -22 -32 13 -69 17 -18 30 -36 30 -42 0 -12 -37
-24 -50 -16 -7 4 -10 -294 -8 -952 3 -872 4 -961 20 -988 23 -42 75 -89 127
-116 44 -22 45 -22 628 -27 l584 -5 32 29 c18 16 23 19 13 7 -26 -31 -20 -32
170 -35 138 -3 165 -6 181 -21 11 -9 23 -14 26 -10 10 9 48 -28 40 -40 -3 -6
-1 -7 6 -3 14 9 45 -59 35 -76 -5 -7 -2 -8 6 -3 10 6 12 4 7 -8 -3 -9 -1 -19
4 -23 13 -8 2 -119 -15 -149 -19 -34 -70 -86 -100 -102 -16 -8 -56 -19 -90
-24 -33 -5 -484 -9 -1000 -9 -742 0 -941 3 -948 12 -13 21 -9 -75 5 -102 7
-13 28 -35 46 -47 33 -23 40 -23 302 -23 l269 0 0 -209 c0 -199 1 -209 23
-241 41 -61 83 -75 245 -77 l142 -2 45 30 c25 17 51 40 58 52 8 15 14 91 17
232 l5 210 143 3 c78 1 142 1 142 -1 0 -2 -72 -151 -160 -331 -88 -179 -160
-333 -160 -340 0 -18 38 -42 176 -110 186 -91 252 -118 266 -109 10 5 147 281
504 1012 74 151 136 272 138 270 1 -2 0 -301 -4 -664 -3 -363 -4 -665 -2 -672
6 -19 36 -21 285 -20 l242 2 7 440 7 439 -22 26 c-20 22 -20 23 -1 7 l21 -17
7 466 c6 456 6 466 -14 512 -46 103 -86 121 -271 122 -111 0 -139 3 -149 16
-36 43 -55 44 -626 44 l-544 0 0 -24 c0 -31 -15 -36 -240 -86 -96 -21 -237
-53 -313 -70 -77 -17 -142 -29 -145 -25 -4 4 -9 77 -12 163 l-5 156 -35 7
c-51 11 -63 33 -56 108 6 72 14 86 62 101 l34 12 0 684 c0 376 1 687 3 690 2
5 -108 54 -123 54 -4 0 -14 -8 -23 -18z m1328 -1792 c10 -11 16 -20 13 -20 -3
0 -13 9 -23 20 -10 11 -16 20 -13 20 3 0 13 -9 23 -20z m465 16 c0 -2 -8 -10
-17 -17 -16 -13 -17 -12 -4 4 13 16 21 21 21 13z m-384 -98 l29 -33 -32 29
c-18 17 -33 31 -33 33 0 8 8 1 36 -29z m304 18 c0 -2 -8 -10 -17 -17 -16 -13
-17 -12 -4 4 13 16 21 21 21 13z m-230 -91 c13 -14 21 -25 18 -25 -2 0 -15 11
-28 25 -13 14 -21 25 -18 25 2 0 15 -11 28 -25z m150 11 c0 -2 -8 -10 -17 -17
-16 -13 -17 -12 -4 4 13 16 21 21 21 13z m-58 -58 l-22 -22 23 -26 22 -25 -25
22 c-21 19 -29 20 -40 10 -13 -10 -13 -10 -3 2 10 12 9 19 -5 35 -17 21 -17
21 4 3 20 -16 22 -16 39 3 10 11 21 20 24 20 3 0 -4 -10 -17 -22z m-92 -91 c0
-2 -10 -12 -22 -23 l-23 -19 19 23 c18 21 26 27 26 19z m166 -29 l29 -33 -32
29 c-18 17 -33 31 -33 33 0 8 8 1 36 -29z m80 -80 l29 -33 -32 29 c-18 17 -33
31 -33 33 0 8 8 1 36 -29z m160 -160 l29 -33 -32 29 c-18 17 -33 31 -33 33 0
8 8 1 36 -29z m80 -80 l29 -33 -32 29 c-18 17 -33 31 -33 33 0 8 8 1 36 -29z
m80 -80 l29 -33 -32 29 c-18 17 -33 31 -33 33 0 8 8 1 36 -29z m80 -80 l29
-33 -32 29 c-18 17 -33 31 -33 33 0 8 8 1 36 -29z m74 -73 c13 -14 21 -25 18
-25 -2 0 -15 11 -28 25 -13 14 -21 25 -18 25 2 0 15 -11 28 -25z m-1330 -34
c0 -6 -9 -16 -20 -24 -11 -8 -17 -17 -12 -21 4 -4 2 -6 -4 -4 -13 4 -113 -92
-110 -106 2 -6 1 -8 -1 -4 -6 9 -49 -35 -45 -45 1 -5 -1 -6 -6 -3 -11 7 -77
-65 -73 -79 1 -5 -1 -7 -5 -3 -10 10 -34 -10 -30 -25 1 -7 1 -8 -2 -4 -2 5
-33 -22 -68 -59 -36 -37 -67 -65 -69 -62 -5 5 425 445 438 447 4 0 7 -3 7 -8z
m1416 -53 l29 -33 -32 29 c-18 17 -33 31 -33 33 0 8 8 1 36 -29z m74 -73 c13
-14 21 -25 18 -25 -2 0 -15 11 -28 25 -13 14 -21 25 -18 25 2 0 15 -11 28 -25z"/>
<path d="M9351 5204 c0 -11 3 -14 6 -6 3 7 2 16 -1 19 -3 4 -6 -2 -5 -13z"/>
<path d="M9298 5119 c-10 -5 -18 -21 -18 -34 0 -22 5 -25 35 -25 28 0 35 4 35
19 0 15 -24 52 -33 51 -1 0 -10 -5 -19 -11z"/>
<path d="M9550 5060 c8 -5 24 -10 35 -10 17 0 17 2 5 10 -8 5 -24 10 -35 10
-17 0 -17 -2 -5 -10z"/>
<path d="M8542 5040 c0 -14 2 -19 5 -12 2 6 2 18 0 25 -3 6 -5 1 -5 -13z"/>
<path d="M8647 5026 c-4 -10 -1 -13 9 -9 15 6 19 23 5 23 -5 0 -11 -7 -14 -14z"/>
<path d="M9288 5033 c6 -2 18 -2 25 0 6 3 1 5 -13 5 -14 0 -19 -2 -12 -5z"/>
<path d="M9286 5013 c-2 -2 0 -23 4 -48 4 -29 3 -46 -4 -49 -7 -3 -7 -5 1 -5
6 -1 15 4 18 9 3 6 17 10 31 10 23 0 25 3 22 43 -3 40 -4 42 -36 42 -18 1 -34
-1 -36 -2z"/>
<path d="M7991 4984 c0 -11 3 -14 6 -6 3 7 2 16 -1 19 -3 4 -6 -2 -5 -13z"/>
<path d="M3173 4723 c-10 -3 -13 -69 -13 -278 0 -261 1 -275 19 -285 12 -6 94
-10 198 -10 204 0 220 5 225 68 l3 37 51 3 c83 5 89 17 89 182 0 168 -6 180
-92 180 l-53 0 0 43 c0 24 -5 48 -12 55 -9 9 -68 12 -207 11 -108 0 -202 -3
-208 -6z m515 -168 c7 -14 12 -69 12 -122 0 -111 -11 -133 -67 -133 l-33 0 0
140 0 140 38 0 c32 0 41 -5 50 -25z"/>
<path d="M4400 4641 c0 -10 19 -25 25 -20 1 2 -3 10 -11 17 -8 7 -14 8 -14 3z"/>
<path d="M7843 4293 c-1 -33 -36 -63 -70 -63 -26 0 -180 -23 -268 -40 -27 -6
-68 -12 -90 -14 -112 -10 -174 -20 -169 -27 3 -5 39 -9 81 -9 59 0 81 4 96 18
19 16 20 16 14 0 -6 -17 6 -18 161 -17 202 1 327 10 343 26 6 6 9 22 5 36 -5
23 -81 117 -94 117 -4 0 -8 -12 -9 -27z"/>
<path d="M5370 3605 c0 -8 15 -24 33 -35 30 -19 50 -20 416 -19 l385 0 -27 25
c-15 14 -27 28 -27 31 0 4 13 -5 28 -20 16 -15 32 -24 37 -20 4 5 5 2 0 -6 -6
-11 -1 -12 31 -7 35 7 124 50 124 61 0 2 -225 4 -500 5 -442 0 -500 -2 -500
-15z"/>
<path d="M3120 2698 c0 -7 -7 -67 -14 -133 -8 -66 -18 -162 -21 -212 -7 -90
-7 -93 14 -93 21 0 21 0 21 -340 l0 -340 -35 0 -35 0 -1 188 c0 103 -2 183 -4
177 -2 -5 -13 -107 -25 -225 -12 -118 -30 -297 -41 -397 -10 -101 -19 -201
-19 -223 0 -47 -13 -53 -101 -48 -46 3 -54 6 -57 23 -2 17 -10 21 -41 20 -46
0 -44 -15 2 -16 18 0 27 -3 20 -5 -16 -7 -5 -34 12 -28 7 3 16 1 20 -5 3 -6
-1 -11 -9 -11 -9 0 -16 -4 -16 -8 0 -14 29 -10 34 4 3 8 11 12 18 10 7 -3 33
-7 58 -10 32 -5 41 -3 30 4 -12 7 -8 10 18 10 17 0 32 5 32 10 0 6 9 10 21 10
13 0 18 4 13 13 -5 7 0 6 11 -3 10 -8 16 -10 12 -3 -4 6 -3 14 3 18 6 4 7 11
4 17 -5 8 15 9 67 5 45 -4 64 -3 49 3 l-25 8 25 1 c14 1 50 3 80 6 42 4 49 2
30 -5 -21 -8 -19 -9 15 -6 44 4 57 7 98 24 16 7 35 12 43 12 9 0 24 5 34 10
17 9 19 18 13 73 -3 34 -11 67 -17 73 -10 9 -15 467 -16 1327 0 7 -61 37 -76
37 -4 0 1 -9 11 -20 10 -11 22 -17 28 -13 6 3 7 1 3 -6 -4 -6 -1 -14 8 -17 8
-3 17 -12 20 -20 8 -22 -14 -7 -48 33 -40 46 -55 53 -155 69 -105 17 -111 17
-111 2z m188 -777 l2 -342 -27 3 -28 3 -3 330 c-1 181 0 336 3 342 2 7 15 11
27 9 l23 -3 3 -342z m162 -724 c0 -2 -10 -12 -22 -23 l-23 -19 19 23 c18 21
26 27 26 19z"/>
<path d="M2480 2693 l-85 -4 -47 -46 c-27 -26 -44 -51 -40 -55 4 -4 39 -11 77
-14 101 -8 449 -21 458 -16 4 2 7 34 7 73 l0 69 -142 -2 c-79 -1 -181 -4 -228
-5z"/>
<path d="M2280 2670 c-47 -7 -100 -28 -100 -40 0 -11 42 -28 77 -33 27 -3 39
3 75 40 47 48 46 49 -52 33z"/>
<path d="M8310 2316 c0 -2 8 -10 18 -17 15 -13 16 -12 3 4 -13 16 -21 21 -21
13z"/>
<path d="M2301 2284 c0 -11 3 -14 6 -6 3 7 2 16 -1 19 -3 4 -6 -2 -5 -13z"/>
<path d="M2640 1927 c1 -281 4 -347 15 -347 11 0 13 64 15 333 1 293 -1 336
-15 347 -14 12 -16 -19 -15 -333z"/>
<path d="M2268 2254 c-5 -4 -8 -158 -8 -343 0 -226 3 -332 10 -325 7 7 9 128
8 343 -2 183 -6 329 -10 325z"/>
<path d="M2456 2253 c-10 -10 -7 -673 3 -673 19 0 21 40 21 350 0 289 -4 343
-24 323z"/>
<path d="M9151 2054 c0 -11 3 -14 6 -6 3 7 2 16 -1 19 -3 4 -6 -2 -5 -13z"/>
<path d="M8470 1699 c0 -5 5 -7 10 -4 6 3 10 8 10 11 0 2 -4 4 -10 4 -5 0 -10
-5 -10 -11z"/>
<path d="M5695 1650 c-16 -7 -17 -9 -3 -9 9 -1 20 4 23 9 7 11 7 11 -20 0z"/>
<path d="M5718 1486 l3 -146 47 -21 c26 -11 97 -41 157 -66 l110 -45 197 2
c207 1 236 -4 295 -50 29 -22 52 -27 35 -7 -5 6 -8 26 -6 42 4 36 -4 65 -18
65 -6 0 -7 -8 -3 -17 10 -28 -10 -2 -23 30 -7 16 -8 27 -2 27 6 0 10 16 10 35
0 30 3 35 23 35 15 0 18 3 9 9 -7 4 -56 9 -109 10 -52 1 -104 6 -115 12 -20
11 -32 2 -59 -43 -11 -20 -34 -24 -44 -8 -3 5 6 25 20 44 24 32 25 34 6 39
-15 3 -26 -4 -43 -29 -13 -19 -28 -34 -35 -34 -24 0 -24 22 1 54 23 31 24 35
8 41 -12 4 -24 -3 -39 -22 -13 -15 -23 -31 -23 -35 0 -5 -9 -8 -20 -8 -26 0
-26 27 1 56 12 12 18 27 15 32 -13 21 -301 135 -351 140 l-50 4 3 -146z m742
-122 c0 -2 -9 -4 -21 -4 -11 0 -18 4 -14 10 5 8 35 3 35 -6z m36 -6 c-1 -7 -7
-21 -12 -32 -10 -16 -12 -16 -17 -2 -4 9 -2 16 3 16 6 0 10 7 10 15 0 8 4 15
9 15 5 0 8 -6 7 -12z"/>
<path d="M5175 1297 l-84 -83 62 1 c34 0 68 4 75 8 23 15 13 29 -18 25 -35 -5
-49 18 -23 38 10 7 21 14 26 14 4 0 7 5 7 11 0 12 50 59 63 59 4 0 7 -4 7 -9
0 -4 11 -6 25 -3 39 7 29 22 -15 22 -37 0 -47 -7 -125 -83z"/>
<path d="M5399 1375 c-3 -5 -6 -32 -7 -60 l-1 -50 10 40 c10 41 9 88 -2 70z"/>
<path d="M6642 1374 c10 -10 203 -13 218 -3 10 5 -28 9 -104 9 -66 0 -117 -3
-114 -6z"/>
<path d="M6916 1341 c5 -33 3 -41 -15 -50 -11 -6 -27 -24 -35 -39 l-15 -27 -2
35 c-1 35 -1 35 -11 -10 -6 -25 -10 -55 -10 -67 0 -13 -4 -21 -8 -18 -5 3 -7
-26 -5 -65 1 -38 -1 -70 -6 -70 -13 0 -11 -28 3 -36 8 -5 9 -2 5 9 -6 15 40
16 545 17 303 0 555 3 561 7 6 3 7 1 3 -5 -4 -7 -2 -12 3 -12 6 0 11 -6 11
-13 0 -8 9 -22 21 -33 26 -23 20 -76 -11 -109 -18 -19 -27 -21 -57 -15 -44 10
-56 22 -57 56 -2 24 -6 27 -37 28 l-35 1 0 -50 c0 -48 2 -52 59 -108 57 -56
60 -57 79 -40 12 10 18 27 16 44 -2 20 8 37 40 68 23 23 40 46 38 50 -5 8 -4
8 59 15 56 5 60 38 10 86 -19 18 -35 29 -35 24 0 -6 11 -21 25 -34 29 -27 33
-49 8 -45 -10 1 -17 9 -15 19 2 9 -2 16 -8 16 -5 0 -10 7 -10 15 0 8 -5 15
-11 15 -6 0 -8 7 -5 16 7 19 -10 44 -31 44 -12 0 -13 -3 -4 -14 16 -19 23
-102 7 -86 -6 6 -11 25 -11 43 0 27 -6 35 -40 52 -22 12 -38 26 -37 31 2 5 9
7 15 5 28 -9 91 -1 108 15 17 16 19 16 26 -2 8 -23 30 -46 39 -42 4 2 8 -7 9
-19 1 -13 0 -23 -2 -23 -1 0 -18 17 -37 37 -19 21 -37 35 -40 32 -3 -3 21 -34
54 -69 57 -60 64 -71 61 -95 -2 -20 -225 -235 -244 -235 -10 0 -43 23 -73 51
-30 29 -54 48 -54 43 0 -5 -5 -2 -10 6 -5 8 -10 36 -10 63 0 26 -4 47 -10 47
-5 0 -7 6 -4 14 4 11 -61 14 -405 15 -280 2 -411 -1 -411 -8 0 -7 131 -12 403
-14 l402 -2 -412 -3 c-227 -1 -413 -5 -413 -9 1 -15 29 -58 30 -45 0 8 19 12
60 12 53 0 60 -2 60 -20 0 -20 7 -20 331 -20 358 0 362 -1 352 -53 -4 -22 -2
-27 15 -27 11 0 25 -6 32 -14 6 -8 17 -13 25 -10 16 6 29 -12 15 -21 -5 -3
-10 -13 -10 -21 0 -10 12 -14 40 -14 33 0 40 -3 40 -20 0 -18 7 -20 59 -20
l58 0 6 47 c3 31 1 51 -6 55 -21 13 -29 9 -22 -13 5 -15 4 -19 -4 -15 -14 9
-14 26 -1 46 9 13 11 13 19 0 6 -8 13 -11 18 -7 4 5 1 12 -7 17 -11 7 -4 17
30 48 42 38 45 39 53 20 9 -25 0 -38 -13 -18 -5 8 -12 11 -16 8 -9 -10 24 -41
35 -34 5 4 12 0 15 -6 5 -10 7 -10 12 0 3 6 14 12 25 12 12 0 19 7 19 20 0 11
-4 20 -10 20 -5 0 -10 7 -10 15 0 8 -4 15 -10 15 -5 0 -10 -7 -10 -15 0 -8 -4
-15 -9 -15 -5 0 -8 12 -7 28 2 15 8 27 15 26 27 -2 31 -5 31 -21 0 -14 2 -15
13 -4 10 10 8 16 -10 28 -17 12 -20 18 -12 31 9 14 23 16 75 14 41 -3 64 0 64
7 0 6 10 11 21 11 21 0 22 3 16 70 -4 48 -2 70 5 70 6 0 9 3 5 6 -3 4 4 14 16
24 21 17 22 17 40 -4 18 -20 19 -20 31 -3 14 18 32 24 21 7 -4 -6 5 -10 19
-10 25 0 26 2 26 68 0 45 -3 62 -10 52 -5 -8 -12 -11 -16 -7 -5 4 14 28 41 52
51 47 65 52 45 15 -21 -40 -2 -32 22 9 l23 40 11 -32 c10 -30 13 -32 68 -35
32 -2 54 -7 51 -13 -4 -5 12 -9 35 -9 23 0 39 4 36 8 -2 4 -1 14 5 22 7 12 9
11 10 -5 1 -11 1 -26 0 -32 -1 -7 5 -13 14 -13 8 0 15 -5 15 -12 0 -6 3 -9 6
-5 3 3 7 36 8 72 l2 66 -55 -2 c-31 0 -93 2 -139 6 l-83 8 -47 -45 c-49 -47
-84 -67 -79 -45 1 7 -12 13 -31 15 -24 2 -32 8 -28 17 3 8 0 15 -7 18 -6 2 -3
6 7 10 10 4 15 3 11 -3 -12 -19 52 -10 70 10 17 19 16 19 -31 16 -27 -1 -63 0
-80 4 -31 7 -32 7 -37 -37 -2 -24 -12 -52 -21 -62 -19 -21 -21 -67 -3 -74 6
-2 31 16 55 39 45 46 66 54 76 28 10 -26 9 -28 -60 -97 l-67 -67 -29 25 c-16
14 -35 25 -42 25 -21 0 -19 98 4 135 11 18 20 42 20 54 0 26 -26 39 -43 21
-10 -10 -7 -11 13 -5 19 5 22 4 10 -4 -12 -9 -12 -13 -2 -19 16 -11 8 -34 -18
-50 -16 -10 -20 -10 -20 2 0 15 -27 29 -40 21 -5 -3 -7 -12 -3 -20 3 -8 0 -15
-7 -15 -6 0 -8 5 -5 10 4 6 -5 10 -19 10 -35 0 -35 33 1 66 32 30 27 38 -16
23 -24 -9 -29 -14 -19 -20 8 -5 9 -9 2 -9 -7 0 -11 -14 -10 -35 1 -22 -2 -31
-8 -25 -6 6 -13 10 -17 10 -4 0 17 -24 48 -52 31 -29 59 -52 64 -51 5 2 6 -3
3 -10 -2 -7 7 -19 21 -27 14 -7 25 -18 25 -24 0 -6 12 -20 27 -32 18 -14 24
-26 20 -38 -11 -28 -36 -30 -63 -6 -13 13 -24 20 -24 15 0 -5 -11 2 -25 15
-13 12 -22 26 -20 30 7 11 -72 80 -92 80 -10 0 -24 4 -32 9 -12 8 -12 13 3 35
9 14 22 26 29 26 8 0 7 4 -3 10 -9 6 -17 5 -22 -3 -6 -9 -8 -9 -8 1 0 19 -28
14 -40 -8 -8 -15 -7 -27 5 -49 18 -35 18 -41 5 -41 -5 0 -21 -11 -35 -26 -28
-28 -46 -25 -38 6 5 20 22 23 35 5 5 -6 8 -4 8 5 0 9 -15 20 -35 26 -34 11
-35 10 -29 -15 5 -25 4 -25 -12 4 -9 17 -22 33 -28 37 -6 5 -1 8 12 8 19 0 21
2 10 19 -7 11 -15 18 -19 15 -4 -2 -6 4 -5 14 0 10 -6 16 -16 16 -10 -1 -15 2
-12 7 3 5 12 9 20 9 8 0 14 5 14 10 0 12 -85 9 -97 -4 -4 -4 -2 -6 6 -4 7 2
15 -2 18 -8 2 -7 -6 -10 -22 -6 -14 2 -23 7 -21 10 13 12 -19 32 -50 32 -19 0
-33 4 -31 9 1 5 -1 9 -5 10 -5 1 -8 -2 -7 -6 1 -11 -32 -21 -67 -22 -28 -1
-33 -5 -44 -46 -14 -50 -26 -63 -42 -47 -8 8 -7 27 4 65 15 53 15 53 -6 51
-32 -4 -33 -5 -11 -14 15 -7 16 -9 4 -9 -11 -1 -20 -16 -28 -45 -12 -49 -27
-64 -44 -47 -7 7 -7 21 1 48 11 35 10 40 -10 57 l-23 19 28 -5 c27 -5 38 6 14
15 -17 6 -66 -3 -73 -14 -3 -5 1 -6 9 -3 24 9 34 -18 25 -64 -10 -44 -34 -65
-48 -42 -5 7 -4 24 1 37 5 14 9 29 9 34 0 5 -80 9 -194 9 -119 0 -197 4 -201
10 -3 6 2 10 12 10 17 1 17 1 1 11 -10 5 -15 16 -12 24 4 10 0 15 -10 15 -13
0 -15 -7 -10 -39z m1431 -38 c-3 -10 -5 -4 -5 12 0 17 2 24 5 18 2 -7 2 -21 0
-30z m218 17 c3 -5 1 -10 -4 -10 -6 0 -11 5 -11 10 0 6 2 10 4 10 3 0 8 -4 11
-10z m-195 -56 c0 -3 -7 -12 -15 -21 -20 -19 -32 -10 -14 11 14 15 29 21 29
10z m-206 -73 c-2 -3 -12 3 -22 13 -16 17 -16 18 5 5 12 -7 20 -15 17 -18z
m46 -31 c0 -5 -4 -10 -9 -10 -6 0 -13 5 -16 10 -3 6 1 10 9 10 9 0 16 -4 16
-10z m180 -21 c0 -6 7 -9 14 -6 10 4 13 1 9 -9 -7 -18 -11 -18 -29 0 -16 17
-18 26 -4 26 6 0 10 -5 10 -11z m-285 -25 c20 -16 20 -16 -2 -9 -18 5 -22 3
-17 -9 3 -9 1 -16 -5 -16 -6 0 -11 4 -11 9 0 5 -3 16 -6 25 -8 21 15 20 41 0z
m-145 -4 c-19 -13 -30 -13 -30 0 0 6 10 10 23 10 18 0 19 -2 7 -10z m337 -87
c-9 -9 -19 -14 -23 -11 -10 10 6 28 24 28 15 0 15 -1 -1 -17z m-332 -2 c3 -5
1 -12 -4 -15 -5 -3 -11 1 -15 9 -6 16 9 21 19 6z m-175 -121 c0 -5 -2 -10 -4
-10 -3 0 -8 5 -11 10 -3 6 -1 10 4 10 6 0 11 -4 11 -10z m120 -80 c0 -5 -2
-10 -4 -10 -3 0 -8 5 -11 10 -3 6 -1 10 4 10 6 0 11 -4 11 -10z m-10 -72 c0
-5 -4 -8 -10 -8 -5 0 -10 10 -10 23 0 18 2 19 10 7 5 -8 10 -18 10 -22z m30
-88 c0 -5 -7 -10 -15 -10 -8 0 -15 5 -15 10 0 6 7 10 15 10 8 0 15 -4 15 -10z"/>
<path d="M7334 1368 c-3 -4 2 -8 10 -8 8 0 17 4 20 8 3 5 -2 9 -10 9 -8 0 -17
-4 -20 -9z"/>
<path d="M4870 1351 c0 -8 7 -22 16 -32 9 -10 13 -23 9 -28 -11 -19 -25 -12
-25 12 0 19 -4 16 -22 -15 -11 -20 -32 -42 -45 -49 -15 -8 -19 -15 -12 -19 11
-8 59 34 59 50 0 6 5 10 10 10 17 0 11 -21 -12 -40 -13 -10 -19 -22 -15 -26 4
-4 36 21 72 56 35 36 62 67 59 69 -2 2 -13 -4 -23 -13 -19 -17 -20 -17 -18 2
1 17 11 21 87 26 48 4 99 4 115 0 21 -5 26 -4 20 5 -11 20 -275 11 -275 -8z"/>
<path d="M7688 1363 c17 -2 47 -2 65 0 17 2 3 4 -33 4 -36 0 -50 -2 -32 -4z"/>
<path d="M7825 1361 c11 -4 43 -5 70 -1 49 7 49 7 -20 8 -44 0 -62 -2 -50 -7z"/>
<path d="M8008 1363 c12 -2 32 -2 45 0 12 2 2 4 -23 4 -25 0 -35 -2 -22 -4z"/>
<path d="M4310 1333 c0 -7 8 -13 18 -13 10 0 24 -6 31 -12 11 -11 13 -10 7 5
-3 10 -6 23 -6 28 0 5 -11 8 -25 7 -14 -1 -25 -8 -25 -15z"/>
<path d="M7933 1343 c9 -2 23 -2 30 0 6 3 -1 5 -18 5 -16 0 -22 -2 -12 -5z"/>
<path d="M8008 1343 c6 -2 12 -13 12 -24 0 -28 17 -23 22 6 5 22 2 25 -21 24
-14 0 -20 -3 -13 -6z"/>
<path d="M3940 1329 c-30 -5 -70 -6 -88 -3 -18 3 -60 1 -95 -3 -61 -7 -62 -8
-22 -14 30 -5 33 -7 13 -8 -32 -1 -39 -28 -10 -38 9 -4 21 -11 25 -17 6 -8 10
-7 14 2 3 7 27 12 66 13 50 1 56 3 32 9 l-30 8 28 1 c33 1 36 18 5 24 -13 3 4
3 36 1 32 -2 118 -5 190 -5 72 -1 123 -3 114 -6 -11 -3 -18 -14 -18 -30 0 -20
3 -23 13 -14 19 15 29 2 12 -16 -8 -8 -15 -25 -15 -38 0 -13 -5 -25 -10 -27
-6 -2 -8 -16 -4 -35 5 -25 12 -32 35 -35 38 -6 44 5 22 38 -18 28 -19 75 -1
107 5 10 7 36 3 58 l-7 39 -126 -1 c-70 -1 -152 -5 -182 -10z m-117 -16 c-7
-2 -19 -2 -25 0 -7 3 -2 5 12 5 14 0 19 -2 13 -5z"/>
<path d="M7523 1333 c10 -10 77 -15 77 -6 0 4 -19 9 -42 10 -22 2 -38 0 -35
-4z"/>
<path d="M6850 1315 c0 -8 2 -15 4 -15 2 0 12 -3 21 -7 15 -5 16 -3 6 15 -13
25 -31 29 -31 7z"/>
<path d="M7930 1315 c0 -8 7 -15 15 -15 8 0 15 7 15 15 0 8 -7 15 -15 15 -8 0
-15 -7 -15 -15z"/>
<path d="M9040 1320 c0 -6 9 -10 20 -10 11 0 20 -7 20 -15 0 -19 96 -22 102
-3 5 15 81 14 86 -1 2 -6 12 -11 23 -11 21 0 26 -16 7 -23 -7 -2 -9 -8 -5 -13
5 -5 13 -1 18 9 12 21 57 23 65 2 8 -19 44 -20 44 -1 0 7 9 16 20 19 59 15
-27 41 -106 31 -30 -3 -34 -2 -19 5 16 8 10 10 -30 11 -27 1 -94 4 -147 6 -59
2 -98 0 -98 -6z m143 -7 c-7 -2 -21 -2 -30 0 -10 3 -4 5 12 5 17 0 24 -2 18
-5z m180 -30 c-7 -2 -21 -2 -30 0 -10 3 -4 5 12 5 17 0 24 -2 18 -5z m37 -13
c0 -5 -2 -10 -4 -10 -3 0 -8 5 -11 10 -3 6 -1 10 4 10 6 0 11 -4 11 -10z"/>
<path d="M3530 1311 l-45 -6 6 -35 6 -35 3 35 c3 32 3 33 7 7 5 -34 33 -34 48
1 8 18 18 22 54 22 24 0 42 2 40 4 -10 8 -77 12 -119 7z"/>
<path d="M6588 1313 c6 -2 18 -2 25 0 6 3 1 5 -13 5 -14 0 -19 -2 -12 -5z"/>
<path d="M7980 1310 c0 -6 7 -10 15 -10 8 0 15 2 15 4 0 2 -7 6 -15 10 -8 3
-15 1 -15 -4z"/>
<path d="M8180 1313 c0 -5 5 -15 10 -23 7 -12 12 -12 22 -2 10 10 10 15 -2 22
-18 12 -30 13 -30 3z"/>
<path d="M4321 1285 c-1 -16 -7 -48 -15 -70 -8 -21 -11 -46 -8 -55 5 -11 8 -9
13 10 l7 25 1 -27 c1 -15 14 -41 31 -60 l30 -32 -1 44 c-1 39 -2 42 -10 20 -6
-17 -7 2 -4 55 2 44 1 72 -3 62 -12 -29 -27 -21 -33 20 -6 34 -6 35 -8 8z"/>
<path d="M9024 1275 c-9 -37 -1 -38 18 -4 14 24 15 29 3 29 -8 0 -17 -11 -21
-25z"/>
<path d="M9480 1286 c0 -9 7 -12 20 -9 11 3 20 9 20 14 0 5 -9 9 -20 9 -11 0
-20 -6 -20 -14z"/>
<path d="M9538 1293 c7 -3 16 -2 19 1 4 3 -2 6 -13 5 -11 0 -14 -3 -6 -6z"/>
<path d="M3648 1283 c12 -2 32 -2 45 0 12 2 2 4 -23 4 -25 0 -35 -2 -22 -4z"/>
<path d="M9635 1279 c-4 -6 -5 -13 -2 -15 9 -9 120 -6 126 4 3 5 13 12 21 15
8 3 0 6 -18 6 -20 1 -31 -3 -27 -9 4 -6 -8 -10 -30 -10 -22 0 -34 4 -30 10 3
6 -3 10 -14 10 -11 0 -23 -5 -26 -11z"/>
<path d="M9825 1270 c34 -9 181 -13 173 -4 -3 3 -50 7 -104 9 -62 2 -88 1 -69
-5z"/>
<path d="M3665 1260 c27 -12 43 -12 25 0 -8 5 -22 9 -30 9 -10 0 -8 -3 5 -9z"/>
<path d="M10053 1263 c9 -2 23 -2 30 0 6 3 -1 5 -18 5 -16 0 -22 -2 -12 -5z"/>
<path d="M4540 1238 c0 -19 2 -20 10 -8 13 19 13 30 0 30 -5 0 -10 -10 -10
-22z"/>
<path d="M9100 1250 c0 -12 24 -12 60 0 21 7 19 8 -17 9 -24 1 -43 -3 -43 -9z"/>
<path d="M10183 1253 c9 -2 23 -2 30 0 6 3 -1 5 -18 5 -16 0 -22 -2 -12 -5z"/>
<path d="M5260 1240 c0 -16 27 -23 58 -15 l27 8 -25 7 c-37 12 -60 11 -60 0z"/>
<path d="M10266 1241 c-9 -13 22 -22 52 -14 24 6 25 7 7 14 -28 11 -53 11 -59
0z"/>
<path d="M4556 1203 c-3 -21 -6 -59 -6 -85 0 -39 -5 -50 -27 -68 -28 -22 -28
-22 -4 -18 13 1 27 10 31 18 4 8 15 29 24 47 9 17 16 45 16 63 0 29 2 31 28
26 15 -3 34 -2 42 4 12 8 9 10 -12 10 -15 0 -34 7 -42 16 -9 8 -16 12 -16 8 0
-3 -6 -1 -14 5 -11 9 -15 4 -20 -26z"/>
<path d="M5723 1225 c0 -11 11 -15 41 -14 l41 1 -35 13 c-46 18 -47 18 -47 0z"/>
<path d="M10375 1233 c28 -4 31 -7 27 -37 -2 -19 1 -36 6 -40 6 -3 8 -15 5
-26 -3 -11 -10 -17 -17 -13 -6 4 -4 -1 4 -11 13 -17 14 -17 21 1 11 27 10 73
-1 73 -5 0 -7 13 -3 30 5 29 5 30 -33 28 -34 -1 -35 -2 -9 -5z"/>
<path d="M9020 1215 c-7 -96 -14 -133 -28 -149 -16 -18 -16 -19 1 -13 11 4 17
1 17 -9 0 -12 -5 -15 -22 -9 -36 12 -118 18 -118 8 0 -4 20 -7 43 -5 31 3 49
-1 60 -12 20 -21 27 -21 38 -4 7 11 11 10 19 -2 12 -19 13 -8 0 24 -6 16 -6
27 0 31 6 4 10 18 9 33 0 24 -1 25 -9 7 -8 -19 -9 -19 -9 3 -1 12 4 30 10 40
9 14 9 27 1 48 -8 23 -11 25 -12 9z"/>
<path d="M10588 1140 l-3 -85 -37 -3 c-24 -2 -38 -8 -38 -17 0 -21 18 -28 56
-21 33 7 34 9 34 52 0 50 25 89 40 63 15 -24 23 -2 16 46 -8 49 -25 61 -27 18
l-1 -28 -8 30 c-5 21 -8 24 -10 10 l-1 -20 -9 20 c-5 14 -9 -8 -12 -65z"/>
<path d="M10678 1213 c6 -2 18 -2 25 0 6 3 1 5 -13 5 -14 0 -19 -2 -12 -5z"/>
<path d="M2100 1200 c-24 -8 -23 -8 8 -9 20 -1 31 3 27 9 -3 6 -7 10 -8 9 -1
-1 -13 -5 -27 -9z"/>
<path d="M10750 1200 c-8 -5 -11 -13 -6 -17 5 -4 11 -2 13 5 3 6 14 12 26 12
18 0 19 -2 7 -10 -13 -8 -12 -10 3 -10 9 0 17 4 17 9 0 5 8 12 18 14 9 3 -1 5
-23 6 -22 0 -47 -3 -55 -9z"/>
<path d="M10683 1193 c9 -2 23 -2 30 0 6 3 -1 5 -18 5 -16 0 -22 -2 -12 -5z"/>
<path d="M10848 1193 l-27 -4 16 -35 c9 -19 23 -34 30 -34 7 0 13 -4 13 -10 0
-5 18 -10 40 -10 33 0 40 3 40 20 0 11 -6 20 -12 20 -8 0 -9 3 -3 8 6 4 16 15
24 25 14 17 11 18 -39 14 -33 -3 -48 -2 -39 4 15 10 10 10 -43 2z"/>
<path d="M1910 1178 c-30 -5 -81 -11 -113 -14 -31 -3 -55 -10 -52 -15 4 -5 -1
-6 -9 -3 -9 3 -16 1 -16 -5 0 -8 -23 -12 -67 -11 -105 1 -142 -4 -148 -19 -4
-9 0 -11 12 -6 10 4 65 9 123 10 58 2 92 1 75 -2 -47 -7 -48 -18 -2 -16 23 0
146 2 273 3 230 1 232 2 252 25 l20 23 -26 8 c-15 4 -67 6 -115 5 -100 -3
-158 6 -136 20 17 11 9 10 -71 -3z m-103 -34 c-3 -3 -12 -4 -19 -1 -8 3 -5 6
6 6 11 1 17 -2 13 -5z"/>
<path d="M11065 1170 c4 -6 13 -10 21 -10 8 0 14 -5 14 -11 0 -7 15 -9 43 -5
23 3 36 3 29 0 -23 -10 -1 -24 38 -24 22 0 45 -7 54 -16 9 -8 16 -11 16 -5 0
14 -33 31 -62 32 -13 0 -17 3 -10 6 19 7 58 -5 77 -24 14 -14 18 -14 26 -2 5
8 9 9 9 3 0 -21 36 -22 71 -2 24 13 27 18 12 14 -13 -2 -26 0 -29 6 -4 6 -23
8 -45 4 -22 -3 -39 -3 -39 2 0 4 -8 8 -17 9 -54 2 -162 16 -186 23 -17 6 -25
6 -22 0z m312 -56 c-3 -3 -12 -4 -19 -1 -8 3 -5 6 6 6 11 1 17 -2 13 -5z"/>
<path d="M5025 1149 c-4 -6 -5 -12 -2 -15 2 -3 7 2 10 11 7 17 1 20 -8 4z"/>
<path d="M1668 1143 c6 -2 18 -2 25 0 6 3 1 5 -13 5 -14 0 -19 -2 -12 -5z"/>
<path d="M4989 1113 c-13 -16 -12 -17 4 -4 9 7 17 15 17 17 0 8 -8 3 -21 -13z"/>
<path d="M2338 1113 c6 -2 18 -2 25 0 6 3 1 5 -13 5 -14 0 -19 -2 -12 -5z"/>
<path d="M3210 1110 c-12 -8 -10 -10 8 -10 13 0 20 4 17 10 -7 12 -6 12 -25 0z"/>
<path d="M11460 1111 c0 -10 12 -14 73 -26 29 -5 19 14 -10 21 -16 3 -36 8
-45 11 -10 2 -18 0 -18 -6z"/>
<path d="M1395 1101 c8 -13 -33 -25 -80 -23 -22 1 -53 -2 -70 -7 -26 -9 -24
-10 20 -7 28 2 39 1 26 -1 -19 -4 -21 -7 -10 -14 9 -6 -1 -8 -31 -4 -46 5 -45
1 2 -9 15 -4 38 -17 52 -31 21 -21 35 -25 81 -25 l55 0 0 40 c0 22 -4 40 -10
40 -18 0 -11 30 8 31 14 0 14 2 -3 9 -27 12 -47 12 -40 1z"/>
<path d="M1580 1098 c0 -4 16 -8 36 -8 21 0 33 4 29 10 -7 12 -65 10 -65 -2z"/>
<path d="M8350 1100 c0 -5 5 -10 10 -10 6 0 10 5 10 10 0 6 -4 10 -10 10 -5 0
-10 -4 -10 -10z"/>
<path d="M8817 1088 c3 -17 2 -19 -5 -9 -7 9 -9 1 -8 -28 1 -42 16 -59 16 -18
0 13 5 28 10 33 6 6 8 18 4 27 -9 25 -23 21 -17 -5z"/>
<path d="M10612 1090 c0 -14 2 -19 5 -12 2 6 2 18 0 25 -3 6 -5 1 -5 -13z"/>
<path d="M10630 1096 c0 -16 21 -36 37 -36 25 0 14 37 -12 42 -15 3 -25 1 -25
-6z"/>
<path d="M11175 1100 c4 -7 65 -1 65 6 0 3 -15 4 -34 2 -19 -1 -33 -5 -31 -8z"/>
<path d="M4721 1084 c0 -11 3 -14 6 -6 3 7 2 16 -1 19 -3 4 -6 -2 -5 -13z"/>
<path d="M11563 1084 c3 -4 25 -8 48 -9 29 -3 38 -1 29 6 -16 10 -87 13 -77 3z"/>
<path d="M4276 1066 c3 -8 14 -16 25 -19 23 -6 24 -3 3 17 -19 20 -35 21 -28
2z"/>
<path d="M11590 1058 c0 -4 16 -8 35 -8 19 0 35 -4 35 -9 0 -5 -17 -8 -37 -6
-21 1 -26 0 -10 -2 15 -2 27 -9 27 -15 0 -6 6 -6 15 2 11 9 19 10 26 3 7 -7 4
-16 -12 -27 -19 -13 -20 -16 -6 -16 10 0 17 -8 17 -20 0 -13 7 -20 20 -20 13
0 20 -7 20 -20 0 -17 7 -20 39 -20 30 0 44 -6 58 -24 10 -13 29 -26 41 -30 12
-4 22 -12 22 -17 0 -12 -14 -11 -27 2 -7 7 -12 6 -16 -5 -8 -21 59 -34 76 -16
9 10 8 12 -5 7 -10 -4 -17 -3 -15 1 1 4 -50 60 -114 125 -64 64 -115 118 -114
119 2 2 -14 3 -36 3 -21 1 -39 -3 -39 -7z"/>
<path d="M4400 1051 c0 -4 12 -14 26 -21 14 -8 57 -49 96 -92 38 -42 78 -80
89 -83 22 -7 79 23 79 42 0 8 -8 17 -17 20 -10 4 -29 17 -42 30 l-25 24 -15
-26 c-9 -14 -18 -25 -21 -25 -13 1 -43 31 -37 37 4 3 -7 15 -24 25 -18 11 -29
24 -26 33 6 14 -19 42 -29 32 -3 -3 -17 -2 -30 3 -13 5 -24 6 -24 1z m70 -21
c0 -5 -4 -10 -10 -10 -5 0 -10 5 -10 10 0 6 5 10 10 10 6 0 10 -4 10 -10z"/>
<path d="M8837 1053 c-12 -12 -7 -22 8 -17 8 4 15 10 15 15 0 11 -14 12 -23 2z"/>
<path d="M11765 1050 c11 -5 14 -9 6 -9 -8 -1 3 -14 23 -30 20 -16 46 -41 57
-55 12 -16 29 -25 42 -23 17 1 22 -3 22 -22 0 -14 11 -32 26 -43 23 -17 30
-18 50 -8 43 22 61 48 50 69 -16 29 -38 33 -38 8 -1 -48 -4 -57 -18 -57 -20 0
-19 17 3 29 16 10 16 10 -1 11 -10 0 -15 5 -12 10 3 6 1 10 -4 10 -20 0 -11
22 10 27 19 5 18 7 -12 20 -19 8 -42 16 -52 18 -9 2 -21 6 -26 10 -5 3 -12 1
-15 -4 -3 -5 2 -12 12 -16 15 -6 14 -8 -6 -16 -17 -7 -28 -5 -40 7 -14 15 -14
17 2 26 15 8 16 12 5 19 -21 13 -29 11 -23 -6 4 -8 2 -15 -4 -15 -5 0 -15 7
-22 15 -10 12 -10 15 1 16 18 1 -21 18 -41 18 -9 0 -8 -4 5 -9z m120 -90 c3
-5 1 -10 -4 -10 -6 0 -11 5 -11 10 0 6 2 10 4 10 3 0 8 -4 11 -10z"/>
<path d="M1126 1039 c7 -11 45 -11 62 0 9 5 -1 8 -27 8 -22 0 -38 -4 -35 -8z"/>
<path d="M10462 1038 c-19 -19 -14 -30 8 -18 11 6 20 15 20 20 0 14 -14 12
-28 -2z"/>
<path d="M4280 1030 c0 -5 10 -10 23 -10 18 0 19 2 7 10 -19 13 -30 13 -30 0z"/>
<path d="M4905 1030 c-3 -5 -1 -10 4 -10 6 0 11 5 11 10 0 6 -2 10 -4 10 -3 0
-8 -4 -11 -10z"/>
<path d="M1058 1023 c-10 -2 -18 -8 -18 -13 0 -5 -6 -7 -14 -4 -8 3 -17 0 -22
-7 -4 -7 -3 -10 4 -6 11 8 42 -1 42 -12 0 -3 -16 -7 -35 -8 -20 -1 -33 3 -30
8 9 13 -47 -10 -67 -28 -10 -9 -18 -21 -18 -26 0 -6 6 -3 13 7 7 10 30 19 57
21 41 4 43 3 26 -10 -11 -8 -16 -15 -12 -15 5 0 2 -8 -5 -17 -13 -16 -12 -17
4 -4 14 11 20 11 35 0 14 -11 15 -11 5 1 -22 24 -15 30 33 30 l45 0 -3 42 c-3
42 -10 49 -40 41z m-81 -59 c-3 -3 -12 -4 -19 -1 -8 3 -5 6 6 6 11 1 17 -2 13
-5z"/>
<path d="M8846 1014 c-10 -26 -7 -34 14 -34 13 0 20 7 20 19 0 24 -26 35 -34
15z"/>
<path d="M4290 999 c0 -4 7 -9 15 -13 9 -3 15 0 15 8 0 7 -7 13 -15 13 -8 0
-15 -4 -15 -8z"/>
<path d="M4350 994 c0 -9 9 -18 20 -21 11 -3 23 -16 26 -28 3 -13 13 -22 22
-21 9 0 16 -5 15 -11 -2 -7 3 -13 10 -13 19 0 77 -63 77 -83 0 -19 15 -23 25
-7 6 9 -175 200 -189 200 -3 0 -6 -7 -6 -16z"/>
<path d="M4555 990 c-3 -5 -1 -10 4 -10 6 0 11 5 11 10 0 6 -2 10 -4 10 -3 0
-8 -4 -11 -10z"/>
<path d="M4845 970 c-16 -16 -26 -30 -22 -30 7 0 57 48 57 55 0 9 -7 5 -35
-25z"/>
<path d="M10520 990 c0 -5 9 -10 20 -10 11 0 20 5 20 10 0 6 -9 10 -20 10 -11
0 -20 -4 -20 -10z"/>
<path d="M6570 958 c0 -4 -11 -8 -25 -8 -14 0 -25 -4 -25 -8 0 -18 -57 -35
-135 -41 -73 -5 -81 -8 -94 -33 -13 -22 -13 -33 -4 -58 6 -16 7 -30 2 -30 -5
0 -9 -9 -9 -20 0 -11 7 -20 15 -20 8 0 15 4 15 10 0 5 13 -4 28 -20 16 -16 32
-27 35 -23 4 3 7 -3 7 -15 0 -12 5 -22 11 -22 5 0 7 4 4 10 -3 6 1 7 9 4 9 -3
14 -10 11 -14 -7 -12 62 -7 72 4 5 5 2 6 -7 1 -8 -5 -12 -4 -7 0 4 5 17 10 29
12 12 2 37 20 55 41 19 20 38 36 43 35 6 -2 10 23 10 57 0 47 3 60 15 60 8 0
15 -4 15 -10 0 -5 9 -10 20 -10 17 0 20 7 20 40 0 33 -3 40 -20 40 -11 0 -20
4 -20 9 0 5 -16 11 -35 13 -19 2 -35 0 -35 -4z"/>
<path d="M6800 963 c0 -14 28 -49 34 -42 3 3 -3 16 -14 29 -11 13 -20 19 -20
13z"/>
<path d="M908 919 c-22 -23 -23 -33 -4 -26 11 4 13 1 10 -11 -4 -10 5 -6 20
11 26 28 27 48 3 46 -7 0 -20 -9 -29 -20z"/>
<path d="M11890 920 c0 -5 5 -10 10 -10 6 0 10 5 10 10 0 6 -4 10 -10 10 -5 0
-10 -4 -10 -10z"/>
<path d="M6868 913 c7 -3 16 -2 19 1 4 3 -2 6 -13 5 -11 0 -14 -3 -6 -6z"/>
<path d="M6798 898 c9 -9 15 -9 24 0 9 9 7 12 -12 12 -19 0 -21 -3 -12 -12z"/>
<path d="M4720 855 c-43 -43 -47 -44 -107 -45 -35 0 -63 -2 -63 -5 0 -3 9 -14
20 -25 11 -11 20 -26 20 -33 0 -7 13 -20 29 -30 21 -12 28 -22 24 -37 -5 -19
0 -20 96 -20 l101 0 0 30 c0 17 3 29 8 29 19 -3 23 2 13 15 -8 10 -8 21 -1 40
11 30 13 86 4 110 -4 11 -19 16 -53 16 -41 0 -51 -5 -91 -45z"/>
<path d="M5137 892 c-13 -23 -16 -65 -6 -84 9 -17 9 -23 0 -26 -17 -6 -13 -31
9 -55 12 -12 16 -23 10 -25 -18 -6 -11 -22 10 -22 11 0 20 -4 20 -10 0 -5 23
-10 51 -10 41 0 50 3 45 15 -7 20 18 19 39 -1 11 -12 19 -13 29 -5 7 6 17 7
21 3 5 -4 5 -2 2 4 -3 6 3 21 14 32 23 26 31 28 23 7 -4 -10 0 -15 15 -15 14
0 21 6 21 20 0 12 -7 20 -17 20 -17 1 -17 1 0 11 10 6 17 22 17 39 0 24 4 30
21 30 17 0 20 5 17 24 -5 25 -5 25 85 1 27 -7 28 -6 21 20 -5 20 -4 26 5 21 6
-4 11 -3 11 3 0 12 -456 15 -463 3z m67 -176 c23 -6 27 -9 15 -17 -7 -5 -18
-9 -24 -9 -5 0 -3 5 5 10 12 8 11 10 -5 10 -22 0 -45 17 -45 34 0 5 6 3 13 -6
6 -9 25 -19 41 -22z"/>
<path d="M5722 888 c-34 -34 0 -125 65 -174 20 -15 31 -30 25 -32 -7 -2 -12
-8 -12 -13 0 -15 70 -10 86 6 9 8 24 15 34 15 10 0 20 6 23 14 3 8 19 20 35
28 28 14 28 14 24 -9 -3 -18 0 -23 17 -23 14 0 21 6 21 20 0 11 5 20 10 20 19
0 10 18 -11 23 -17 5 -20 10 -14 29 12 37 13 72 3 91 -8 15 -26 17 -151 17
-98 0 -147 -4 -155 -12z"/>
<path d="M948 866 c-16 -12 -13 -16 32 -40 28 -15 50 -25 50 -21 0 3 10 1 21
-6 15 -8 19 -8 15 0 -4 6 0 11 9 11 11 0 15 -5 12 -14 -4 -9 4 -16 21 -19 15
-3 38 -8 52 -13 l25 -7 -24 21 c-13 12 -28 19 -32 16 -5 -3 -9 -1 -9 4 0 15
-53 30 -86 26 -24 -4 -26 -3 -9 5 11 5 31 10 45 11 18 2 20 4 7 7 -9 2 -33 -1
-52 -7 -25 -8 -39 -8 -52 0 -16 10 -15 10 5 5 13 -4 22 -2 22 5 0 6 5 8 10 5
6 -3 10 -1 10 4 0 14 -17 14 -25 0 -5 -7 -11 -5 -18 5 -10 13 -15 13 -29 2z"/>
<path d="M6798 873 c12 -2 32 -2 45 0 12 2 2 4 -23 4 -25 0 -35 -2 -22 -4z"/>
<path d="M4884 793 c-1 -10 -4 -26 -9 -35 -6 -15 -2 -18 19 -18 19 0 26 5 26
20 0 11 -4 20 -10 20 -5 0 -10 7 -10 15 0 21 -16 19 -16 -2z"/>
<path d="M11810 785 l-25 -15 30 6 c33 7 58 24 35 24 -8 -1 -26 -7 -40 -15z"/>
<path d="M1240 776 c14 -8 41 -16 60 -19 l35 -6 -37 11 c-21 7 -38 15 -38 20
0 4 -10 8 -22 8 -23 -1 -23 -1 2 -14z"/>
<path d="M8030 780 c0 -5 5 -10 10 -10 6 0 10 5 10 10 0 6 -4 10 -10 10 -5 0
-10 -4 -10 -10z"/>
<path d="M1350 770 c-11 -7 -2 -10 29 -10 48 0 51 4 11 13 -14 3 -32 2 -40 -3z"/>
<path d="M11750 770 c11 -7 7 -10 -17 -10 -17 0 -35 -4 -38 -10 -8 -13 1 -12
48 1 37 10 43 29 9 29 -15 0 -15 -2 -2 -10z"/>
<path d="M11525 760 c-17 -6 -15 -8 12 -14 18 -4 37 -5 43 -1 5 3 18 2 27 -4
10 -5 31 -7 46 -4 21 4 25 8 16 19 -11 14 -108 17 -144 4z m48 -7 c-7 -2 -19
-2 -25 0 -7 3 -2 5 12 5 14 0 19 -2 13 -5z m75 0 c-10 -2 -26 -2 -35 0 -10 3
-2 5 17 5 19 0 27 -2 18 -5z"/>
<path d="M1280 741 c0 -6 12 -11 28 -11 15 0 49 -7 76 -15 58 -18 120 -20 111
-4 -4 6 -10 8 -13 5 -3 -3 -13 1 -22 9 -10 9 -33 17 -51 19 -19 2 -24 1 -12
-1 23 -5 53 -33 35 -33 -6 0 -13 4 -16 9 -3 5 -27 12 -53 15 -27 4 -56 9 -65
12 -10 3 -18 1 -18 -5z"/>
<path d="M11535 731 c-46 -6 -48 -7 -17 -12 40 -7 94 0 86 12 -3 5 -8 8 -12 7
-4 0 -29 -4 -57 -7z"/>
<path d="M1870 700 c0 -11 48 -25 57 -16 4 3 -3 6 -15 6 -12 0 -22 5 -22 10 0
6 -4 10 -10 10 -5 0 -10 -4 -10 -10z"/>
<path d="M11030 700 c-11 -7 -7 -10 17 -10 17 0 35 5 38 10 8 13 -35 13 -55 0z"/>
<path d="M11400 695 c-14 -8 -20 -14 -14 -15 5 0 19 7 30 15 24 18 16 19 -16
0z"/>
<path d="M11450 700 c-11 -8 -7 -9 15 -4 37 8 45 14 19 14 -10 0 -26 -5 -34
-10z"/>
<path d="M1523 693 c9 -2 23 -2 30 0 6 3 -1 5 -18 5 -16 0 -22 -2 -12 -5z"/>
<path d="M1635 691 c-11 -18 10 -23 145 -37 33 -3 40 -1 25 5 -11 5 -33 10
-48 10 -16 1 -26 5 -23 10 3 5 -4 11 -17 15 -33 9 -75 7 -82 -3z"/>
<path d="M1845 673 c-22 -21 -19 -36 4 -23 28 15 67 12 85 -5 8 -8 30 -14 48
-14 l33 2 -30 4 c-16 3 -36 10 -44 16 -7 6 -29 17 -48 23 -28 10 -36 9 -48 -3z"/>
<path d="M1958 683 c12 -2 32 -2 45 0 12 2 2 4 -23 4 -25 0 -35 -2 -22 -4z"/>
<path d="M11161 679 c-59 -11 -67 -22 -11 -14 34 5 41 4 30 -4 -11 -9 -4 -10
30 -5 57 8 63 14 19 15 l-34 1 30 8 c27 7 27 8 5 8 -14 0 -45 -4 -69 -9z"/>
<path d="M11275 679 c-11 -16 -2 -17 30 -3 l30 13 -27 1 c-15 0 -30 -5 -33
-11z"/>
<path d="M11003 672 c-6 -4 13 -7 42 -7 29 0 51 3 48 8 -5 9 -74 9 -90 -1z"/>
<path d="M1958 661 c12 -7 62 -4 62 5 0 2 -17 4 -37 4 -24 0 -33 -3 -25 -9z"/>
<path d="M11020 650 c-24 -8 -24 -8 -2 -9 12 -1 25 -1 29 -2 4 0 9 4 11 10 4
12 -2 12 -38 1z"/>
<path d="M1878 643 c7 -3 16 -2 19 1 4 3 -2 6 -13 5 -11 0 -14 -3 -6 -6z"/>
<path d="M11088 643 c7 -3 16 -2 19 1 4 3 -2 6 -13 5 -11 0 -14 -3 -6 -6z"/>
<path d="M5500 629 c0 -16 -39 -22 -50 -7 -3 3 -6 -23 -7 -58 -1 -50 2 -64 13
-64 17 0 19 -30 2 -31 -7 0 9 -7 36 -15 48 -15 94 -12 68 5 -8 4 -11 19 -8 34
5 27 -8 45 -19 27 -11 -19 -35 -10 -45 16 -8 20 -13 24 -23 15 -10 -8 -14 -7
-14 3 0 14 14 16 34 3 6 -4 14 -3 17 2 4 5 1 13 -5 17 -9 5 -7 11 5 20 14 10
15 17 7 31 -9 15 -10 16 -11 2z m-13 -33 c-3 -7 0 -20 6 -27 10 -10 9 -11 -3
-2 -8 6 -18 12 -22 12 -5 1 -7 4 -5 9 1 4 5 6 10 5 4 -2 7 2 7 7 0 6 3 10 6
10 3 0 4 -6 1 -14z m58 -93 c-2 -10 -4 -19 -4 -21 -1 -2 -6 0 -11 3 -8 5 -7
11 1 21 15 18 18 18 14 -3z"/>
<path d="M10935 630 l-20 -9 20 0 c11 0 27 4 35 9 13 9 13 10 0 9 -8 0 -24 -4
-35 -9z"/>
<path d="M2080 620 c0 -5 5 -10 10 -10 6 0 10 5 10 10 0 6 -4 10 -10 10 -5 0
-10 -4 -10 -10z"/>
<path d="M2378 623 c7 -3 16 -2 19 1 4 3 -2 6 -13 5 -11 0 -14 -3 -6 -6z"/>
<path d="M2453 623 c9 -2 23 -2 30 0 6 3 -1 5 -18 5 -16 0 -22 -2 -12 -5z"/>
<path d="M2738 623 c7 -3 16 -2 19 1 4 3 -2 6 -13 5 -11 0 -14 -3 -6 -6z"/>
<path d="M9855 620 c-39 -8 -39 -8 12 -6 28 0 49 4 46 8 -2 5 -7 7 -11 7 -4
-1 -25 -5 -47 -9z"/>
<path d="M10200 620 c-58 -5 -66 -7 -35 -10 71 -7 175 0 175 12 0 8 -20 8
-140 -2z"/>
<path d="M10825 620 c-4 -6 7 -10 25 -10 18 0 29 4 25 10 -3 6 -15 10 -25 10
-10 0 -22 -4 -25 -10z"/>
<path d="M2148 609 c13 -5 30 -5 39 -1 10 6 2 9 -24 10 -33 0 -35 -1 -15 -9z"/>
<path d="M2250 605 c45 -15 105 -11 94 6 -3 5 -12 9 -20 9 -9 0 -12 -5 -8 -12
5 -8 -2 -9 -27 -4 -68 16 -83 16 -39 1z"/>
<path d="M9988 613 c17 -2 47 -2 65 0 17 2 3 4 -33 4 -36 0 -50 -2 -32 -4z"/>
<path d="M10540 610 c-40 -5 -36 -7 35 -11 75 -4 213 4 170 11 -42 5 -162 6
-205 0z"/>
<path d="M2380 599 c-19 -6 -14 -7 20 -4 35 4 41 3 25 -5 -18 -9 -17 -10 5 -5
14 2 36 5 49 5 37 0 22 7 -29 13 -25 3 -56 1 -70 -4z"/>
<path d="M2608 603 c12 -2 30 -2 40 0 9 3 -1 5 -23 4 -22 0 -30 -2 -17 -4z"/>
<path d="M2678 603 c6 -2 18 -2 25 0 6 3 1 5 -13 5 -14 0 -19 -2 -12 -5z"/>
<path d="M2738 593 c6 -2 18 -2 25 0 6 3 1 5 -13 5 -14 0 -19 -2 -12 -5z"/>
<path d="M9525 590 c-9 -15 3 -30 25 -30 17 0 37 17 29 24 -13 11 -48 15 -54
6z"/>
<path d="M10278 593 c12 -2 32 -2 45 0 12 2 2 4 -23 4 -25 0 -35 -2 -22 -4z"/>
<path d="M2605 574 c16 -13 38 -15 106 -11 60 3 93 0 110 -9 13 -7 33 -13 44
-14 14 0 10 5 -15 18 -36 20 -199 40 -170 22 12 -8 10 -10 -8 -10 -13 0 -20 4
-17 10 4 6 -9 10 -32 10 -36 -1 -37 -1 -18 -16z"/>
<path d="M10065 580 c-15 -6 -7 -9 30 -9 36 -1 46 2 35 9 -18 12 -38 12 -65 0z"/>
<path d="M10430 580 c-9 -6 -10 -10 -3 -10 6 0 15 5 18 10 8 12 4 12 -15 0z"/>
<path d="M10513 583 c9 -2 25 -2 35 0 9 3 1 5 -18 5 -19 0 -27 -2 -17 -5z"/>
<path d="M3805 569 c-4 -6 -5 -13 -2 -16 7 -7 27 6 27 18 0 12 -17 12 -25 -2z"/>
<path d="M5516 564 c-8 -20 1 -35 18 -28 14 5 32 -12 38 -35 5 -22 31 -51 46
-51 7 0 11 -3 9 -7 -3 -5 63 -8 146 -9 84 -1 143 0 132 2 -49 8 -233 25 -266
25 -40 -1 -49 10 -45 52 2 14 0 26 -3 25 -21 -2 -31 5 -31 22 0 24 -35 28 -44
4z"/>
<path d="M9171 569 c-20 -8 -22 -14 -17 -39 5 -30 5 -30 -42 -32 -43 -1 -44
-2 -10 -5 21 -2 53 0 73 6 21 5 35 6 35 0 0 -15 22 -10 43 9 18 15 20 15 14 1
-4 -13 -1 -16 13 -12 17 5 17 6 -1 24 -20 20 -34 26 -25 10 3 -5 -1 -14 -9
-21 -13 -10 -19 -10 -33 4 -10 9 -24 16 -30 16 -20 0 -13 17 8 23 11 3 20 10
20 16 0 13 -7 13 -39 0z"/>
<path d="M10233 570 c-12 -5 -115 -10 -228 -12 -113 -2 -205 -7 -205 -12 0 -5
-20 -6 -45 -4 -24 3 -43 3 -41 -1 3 -4 -27 -5 -66 -3 -54 3 -69 1 -63 -8 8
-14 99 -11 480 16 127 8 244 15 262 14 17 0 34 3 37 8 7 12 -103 13 -131 2z"/>
<path d="M3746 535 c18 -14 17 -14 -11 -15 -17 0 -36 -5 -43 -12 -9 -9 -12 -9
-12 0 0 8 -16 11 -47 10 -37 -1 -41 -2 -15 -5 18 -3 30 -9 26 -14 -9 -16 157
-8 181 8 17 11 17 13 2 13 -9 0 -17 -4 -17 -9 0 -6 -9 -9 -20 -8 -15 1 -18 6
-14 24 5 20 2 23 -22 23 -27 0 -27 -1 -8 -15z m2 -32 c-10 -2 -26 -2 -35 0
-10 3 -2 5 17 5 19 0 27 -2 18 -5z"/>
<path d="M3885 540 c3 -5 8 -10 11 -10 2 0 4 5 4 10 0 6 -5 10 -11 10 -5 0 -7
-4 -4 -10z"/>
<path d="M3083 533 c9 -2 23 -2 30 0 6 3 -1 5 -18 5 -16 0 -22 -2 -12 -5z"/>
<path d="M3177 529 c7 -7 15 -10 18 -7 3 3 -2 9 -12 12 -14 6 -15 5 -6 -5z"/>
<path d="M3300 531 c-20 -6 -11 -9 40 -15 36 -4 85 -6 110 -4 33 3 27 5 -27 6
-39 1 -75 7 -78 12 -7 11 -9 11 -45 1z"/>
<path d="M3383 533 c9 -2 23 -2 30 0 6 3 -1 5 -18 5 -16 0 -22 -2 -12 -5z"/>
<path d="M4040 532 c-5 -2 -10 -10 -10 -17 0 -16 -23 -25 -63 -24 -31 1 -31 1
-7 10 20 7 17 8 -15 4 -22 -3 -58 -5 -79 -5 -22 0 -37 -2 -34 -5 12 -13 375
-25 453 -16 l80 10 -85 -3 c-82 -2 -195 8 -140 13 23 3 22 4 -7 12 -18 5 -33
13 -33 18 0 8 -38 10 -60 3z m43 -39 c-7 -2 -21 -2 -30 0 -10 3 -4 5 12 5 17
0 24 -2 18 -5z"/>
<path d="M7446 514 c5 -29 22 -47 36 -38 12 8 9 -11 -4 -24 -9 -9 -9 -12 -1
-12 11 0 23 25 29 57 1 6 -8 20 -19 30 -19 16 -20 16 -8 1 17 -22 4 -23 -20
-2 -17 15 -18 15 -13 -12z m42 -10 c5 3 9 -1 9 -8 0 -20 -27 -13 -40 10 -9 17
-9 17 6 6 9 -8 20 -11 25 -8z"/>
<path d="M9481 531 c-11 -7 -9 -10 9 -16 14 -4 25 -3 30 5 6 9 13 9 31 -1 22
-11 23 -11 10 4 -14 18 -57 22 -80 8z"/>
<path d="M3895 520 c-27 -7 -27 -8 -5 -8 14 0 39 4 55 8 27 7 27 8 5 8 -14 0
-38 -4 -55 -8z"/>
<path d="M4320 515 c0 -16 17 -19 44 -9 26 10 18 24 -14 24 -20 0 -30 -5 -30
-15z"/>
<path d="M8887 503 c-9 -2 -15 -9 -12 -14 7 -11 131 -10 165 2 17 5 5 6 -35 3
-44 -4 -56 -3 -45 5 12 8 7 10 -20 10 -19 -1 -43 -3 -53 -6z"/>
<path d="M7522 484 c2 -11 11 -20 22 -22 13 -3 17 1 14 14 -2 11 -11 20 -22
22 -13 3 -17 -1 -14 -14z"/>
<path d="M8725 494 c48 -8 115 -9 115 -2 0 5 -30 7 -67 7 -38 -1 -59 -3 -48
-5z"/>
<path d="M4406 475 c-4 -10 1 -15 14 -15 11 0 20 7 20 15 0 8 -6 15 -14 15 -8
0 -16 -7 -20 -15z"/>
<path d="M8577 483 c18 -2 50 -2 70 0 21 2 7 4 -32 4 -38 0 -55 -2 -38 -4z"/>
<path d="M8733 473 c9 -2 25 -2 35 0 9 3 1 5 -18 5 -19 0 -27 -2 -17 -5z"/>
<path d="M4458 463 c6 -2 18 -2 25 0 6 3 1 5 -13 5 -14 0 -19 -2 -12 -5z"/>
<path d="M4757 458 c-7 -4 38 -7 98 -6 119 1 116 5 -8 10 -43 2 -84 0 -90 -4z"/>
<path d="M7259 461 c20 -13 -609 -25 -999 -19 -256 4 -299 3 -180 -4 163 -9
1255 -3 1328 8 23 3 44 9 47 13 2 4 -17 4 -43 0 -26 -4 -54 -8 -62 -8 -13 -1
-13 0 0 9 11 7 -3 10 -45 10 -38 0 -55 -4 -46 -9z"/>
<path d="M7675 460 c-4 -6 -38 -9 -86 -6 -43 2 -79 0 -79 -5 0 -5 50 -9 110
-9 62 0 110 4 110 9 0 6 17 8 38 5 28 -3 32 -2 17 5 -27 13 -102 13 -110 1z"/>
<path d="M7850 460 c13 -9 119 -15 109 -6 -2 2 -31 6 -64 10 -41 4 -55 3 -45
-4z"/>
<path d="M8105 460 c-15 -6 -8 -9 28 -9 30 -1 46 3 42 9 -7 12 -42 12 -70 0z"/>
<path d="M8196 461 c-4 -5 3 -7 14 -4 23 6 26 13 6 13 -8 0 -17 -4 -20 -9z"/>
<path d="M8478 463 c6 -2 18 -2 25 0 6 3 1 5 -13 5 -14 0 -19 -2 -12 -5z"/>
<path d="M8538 463 c7 -3 16 -2 19 1 4 3 -2 6 -13 5 -11 0 -14 -3 -6 -6z"/>
<path d="M5107 453 c18 -2 50 -2 70 0 21 2 7 4 -32 4 -38 0 -55 -2 -38 -4z"/>
<path d="M5245 450 c-13 -6 19 -9 89 -9 60 -1 107 1 105 3 -10 8 -176 14 -194
6z"/>
<path d="M5858 453 c12 -2 32 -2 45 0 12 2 2 4 -23 4 -25 0 -35 -2 -22 -4z"/>
<path d="M6362 453 c59 -2 158 -2 220 0 62 1 14 3 -107 3 -121 0 -172 -2 -113
-3z"/>
<path d="M6858 453 c12 -2 30 -2 40 0 9 3 -1 5 -23 4 -22 0 -30 -2 -17 -4z"/>
<path d="M8018 453 c7 -3 16 -2 19 1 4 3 -2 6 -13 5 -11 0 -14 -3 -6 -6z"/>
</g>
</svg>
