<?xml version="1.0" standalone="no"?><svg xmlns="http://www.w3.org/2000/svg" viewBox="0 0 1440 320"><path fill="#71c55f" fill-opacity="1" d="M0,160L30,176C60,192,120,224,180,240C240,256,300,256,360,234.7C420,213,480,171,540,160C600,149,660,171,720,192C780,213,840,235,900,213.3C960,192,1020,128,1080,122.7C1140,117,1200,171,1260,181.3C1320,192,1380,160,1410,144L1440,128L1440,320L1410,320C1380,320,1320,320,1260,320C1200,320,1140,320,1080,320C1020,320,960,320,900,320C840,320,780,320,720,320C660,320,600,320,540,320C480,320,420,320,360,320C300,320,240,320,180,320C120,320,60,320,30,320L0,320Z"></path></svg>