<svg xmlns="http://www.w3.org/2000/svg" viewBox="0 0 400 300" width="406" height="306" class="illustration styles_illustrationTablet__1DWOa"><g id="_65_gaming" data-name="#65_gaming"><polygon points="245.78 213.49 78.78 213.49 52.06 245.08 279.24 249.13 245.78 213.49" fill="#fff"></polygon><path d="M279.24,249.63h0l-227.17-4a.5.5,0,0,1-.45-.29.51.51,0,0,1,.07-.53l26.72-31.6a.5.5,0,0,1,.38-.17h167a.48.48,0,0,1,.36.15l33.46,35.65a.49.49,0,0,1,.1.54A.51.51,0,0,1,279.24,249.63Zm-226.11-5,224.93,4L245.56,214H79Z" fill="#d1d3d4"></path><path d="M204.46,164.4s16.36,33.38,17,56.91c0,0,16.35,5.48,16.35,7.84s-24.42,2.15-24.42,2.15l-19-46.92Z" fill="#fff"></path><path d="M215.2,231.81h-1.78a.5.5,0,0,1-.46-.31l-19-46.93a.49.49,0,0,1,0-.41l10-20a.5.5,0,0,1,.45-.28h0a.51.51,0,0,1,.45.28c.16.33,16.25,33.42,17.07,56.76,4.25,1.44,16.36,5.76,16.36,8.21a.91.91,0,0,1-.3.66C236.2,231.64,220.76,231.81,215.2,231.81Zm-1.44-1c11.07.07,22.83-.55,23.6-1.73,0-1-7.35-4.39-16-7.3a.49.49,0,0,1-.34-.46c-.6-21-13.94-50.25-16.54-55.78L195,184.4Z" fill="#231f20"></path><path d="M155.78,160.15s35.84,0,50.56,4.25L197.89,188l-55.13-13.95Z" fill="#231f20"></path><path d="M197.89,188.54l-.12,0-55.13-14a.47.47,0,0,1-.35-.34.5.5,0,0,1,.11-.48l13-13.94a.52.52,0,0,1,.37-.16c.36,0,36.08,0,50.7,4.27a.49.49,0,0,1,.31.25.51.51,0,0,1,0,.4l-8.45,23.64A.5.5,0,0,1,197.89,188.54ZM143.7,173.82l53.88,13.62,8.12-22.7c-14.19-3.88-46.74-4.09-49.71-4.09Z" fill="#231f20"></path><path d="M164.27,112.66c-.37.54,7.9,14.36,9.88,15.36s24.17-4,29.29-5.2,8.12-.46,8.55,1.65-5.05,8.6-7,9.62-24.62,14-31.83,11.83-25.69-22.34-25.69-22.34" fill="#fff"></path><path d="M175.12,146.66a7.16,7.16,0,0,1-2.06-.26c-7.26-2.19-25.16-21.65-25.92-22.48a.5.5,0,0,1,0-.71.51.51,0,0,1,.71,0c.18.2,18.47,20.09,25.47,22.2,4.19,1.27,15.11-2.79,30.74-11.41l.71-.39c1.87-1,7.06-7.33,6.7-9.07a1.76,1.76,0,0,0-.86-1.2c-1.29-.82-3.81-.85-7.09-.06-.26.07-27.14,6.4-29.63,5.15-2.1-1.05-9.71-13.86-10.12-15.5a.68.68,0,0,1,.06-.59.5.5,0,0,1,.7-.12.51.51,0,0,1,.21.48c.32,1.39,7.84,14,9.6,14.84,1.52.76,19.66-3,28.95-5.23,3.6-.86,6.32-.8,7.86.18a2.83,2.83,0,0,1,1.3,1.85c.5,2.46-5.33,9.15-7.21,10.16l-.7.38C194.52,140.45,181.77,146.66,175.12,146.66Zm-10.44-33.72Zm0,0Zm.08-.25Z" fill="#231f20"></path><path d="M207.84,134.85s2.09-5.75,1.77-6.7-5.05-3.26-5.05-3.26-4.26.41-3.87-.47,6.38-3.48,8.85-3.12,9.35,3.08,10.45,4.34-1.61,6.5-3.15,7.38S206,138.66,207.84,134.85Z" fill="#231f20"></path><path d="M208.48,136.78a1.48,1.48,0,0,1-1-.31c-.42-.39-.44-1-.05-1.81,1-2.64,1.9-5.81,1.76-6.35s-2.55-1.87-4.68-2.91c-2.38.22-3.78.06-4.16-.46a.69.69,0,0,1-.06-.72c.56-1.27,6.92-3.76,9.37-3.41s9.52,3.09,10.75,4.5a2.26,2.26,0,0,1,.32,1.9c-.36,2.16-2.27,5.48-3.59,6.24C217,133.49,211.17,136.78,208.48,136.78Zm-3.92-12.39a.59.59,0,0,1,.22,0c1.48.73,5,2.52,5.3,3.56s-1.12,5.24-1.77,7l0,0c-.25.51-.18.67-.18.67.56.6,5.68-1.54,8.49-3.15,1-.56,2.77-3.58,3.1-5.54.13-.77,0-1-.09-1.08-.93-1.08-7.57-3.81-10.14-4.18-2.08-.3-6.92,1.75-8.09,2.62a14.8,14.8,0,0,0,3.13,0Zm3.28,10.46h0Z" fill="#231f20"></path><path d="M196.83,172s16.36,33.38,17,56.9c0,0,16.36,5.49,16.36,7.84s-24.42,2.16-24.42,2.16l-19-46.93Z" fill="#fff"></path><path d="M207.57,239.43h-1.78a.51.51,0,0,1-.46-.31l-19-46.93a.53.53,0,0,1,0-.41l10-20a.5.5,0,0,1,.45-.27h0a.5.5,0,0,1,.45.28c.16.33,16.25,33.42,17.07,56.76,4.26,1.44,16.37,5.75,16.37,8.2a1,1,0,0,1-.3.67C228.57,239.26,213.13,239.43,207.57,239.43Zm-1.44-1c11.06.07,22.84-.54,23.6-1.72,0-1-7.35-4.39-16-7.3a.51.51,0,0,1-.34-.46c-.6-21-13.94-50.26-16.54-55.78L187.36,192Z" fill="#231f20"></path><path d="M160.54,163.17l38.2,6.72-11,33.56s-50.5,9.46-68.31,1.39-12.76-44.69-12.76-44.69Z" fill="#231f20"></path><path d="M141.86,208.61c-10.18,0-17.76-1.11-22.63-3.32-7.46-3.37-12.07-12.29-13.35-25.77a96.08,96.08,0,0,1,.29-19.44.49.49,0,0,1,.52-.43l53.88,3h.06l38.2,6.72a.52.52,0,0,1,.34.24.49.49,0,0,1,0,.41l-11,33.55a.52.52,0,0,1-.38.34c-.13,0-12.82,2.38-27.52,3.72Q150,208.61,141.86,208.61ZM107.1,160.67c-.49,4.22-3.67,36.38,12.54,43.72,16.77,7.59,63.58-.63,67.72-1.38l10.73-32.73-37.6-6.61Z" fill="#231f20"></path><path d="M164.86,97.86l-12.88-2s-6.24-1.23-14.58,3.38c-6.51,3.6-14.81,12-19,19.2-14.78,25.39-13.16,65.09-13.16,65.09s43.41-11.33,52.54-17.47c7.17-4.81,6.16-6.89,6.16-6.89s-4.42-7.61-3.75-13.65S171.54,106,164.86,97.86Z" fill="#68e1fd"></path><path d="M178.4,226.84c4-3.75,8.09-11.39,8.39-17,.38-6.87-6-14.21-10.93-18.17-6.27-5-13.88-8-21.41-10.7s-15.21-5.36-21.88-9.81A46.58,46.58,0,0,1,112.75,141c-1.48-8.73,2.9-22.66-9.66-24.74-6.06-1-12.19,2.19-16.34,6.72-5.36,5.86-8,13.71-9.73,21.46-3.93,17.76-3.64,36.77,3,53.69s20.21,31.48,37.42,37.37c16.46,5.63,36.85,4,52.48-3.22A31.35,31.35,0,0,0,178.4,226.84Z" fill="#fff"></path><path d="M138.92,239.4a67.33,67.33,0,0,1-21.6-3.37c-16.53-5.67-30.64-19.75-37.73-37.67-6.3-15.94-7.36-34.61-3.07-54,1.49-6.71,4-15.25,9.85-21.7,4.74-5.17,11.18-7.81,16.81-6.88,9.76,1.62,9.74,10.21,9.72,17.78a44.11,44.11,0,0,0,.36,7.38,45.79,45.79,0,0,0,19.59,29.8c6.14,4.09,13.27,6.67,20.15,9.16l1.63.59c7.77,2.83,15.26,5.77,21.55,10.79,5.37,4.27,11.5,11.71,11.13,18.6-.33,6.05-4.7,13.7-8.56,17.32h0a31.76,31.76,0,0,1-8.57,5.58A75.73,75.73,0,0,1,138.92,239.4ZM100.83,116.63c-5.5,0-10.57,3.33-13.7,6.74-4.47,4.89-7.44,11.44-9.6,21.23-4.25,19.17-3.2,37.63,3,53.38,7,17.65,20.85,31.5,37.11,37.07,15.76,5.4,36.21,4.14,52.09-3.2a30.69,30.69,0,0,0,8.3-5.39c3.72-3.5,7.92-11,8.23-16.63.35-6.5-5.57-13.62-10.74-17.74-6.17-4.91-13.58-7.83-21.26-10.62l-1.63-.59c-6.94-2.51-14.13-5.11-20.37-9.27a46.82,46.82,0,0,1-20-30.48,45.47,45.47,0,0,1-.37-7.56c0-7.52,0-15.28-8.86-16.76A13.45,13.45,0,0,0,100.83,116.63ZM178.4,226.84h0Z" fill="#231f20"></path><path d="M140.14,133.6s21.1,25.74,28.81,24,38.28-16.91,38.28-16.91,8.08-1.88,10.27-4.61,3.72-8.67,2.48-9.15-12,4.92-12,4.92,2.54-3.26,1.35-4.61-7.19,5.12-7.19,5.12l-31.46,8.21-16-23.29" fill="#fff"></path><path d="M168.18,158.15c-8.45,0-27.58-23.21-28.42-24.23a.5.5,0,0,1,.07-.71.5.5,0,0,1,.7.07c.21.26,21,25.48,28.31,23.8,7.56-1.73,37.87-16.72,38.17-16.87l.11,0c.08,0,7.93-1.86,10-4.43,2.23-2.78,3.21-7.89,2.68-8.38-.82-.15-6.55,2.38-11.62,4.91a.51.51,0,0,1-.61-.13.5.5,0,0,1,0-.62c.74-1,2.05-3.19,1.36-4h0c-1.18,0-4.45,3-6.42,5.13a.48.48,0,0,1-.25.14L170.78,141a.51.51,0,0,1-.54-.2l-16-23.3a.52.52,0,0,1,.13-.7.51.51,0,0,1,.7.13l15.8,23,31-8.09c1-1.12,5.13-5.36,7-5.36h0a1,1,0,0,1,.81.36c.85,1,.32,2.52-.32,3.69,3.75-1.82,9.69-4.56,10.81-4.13a1.14,1.14,0,0,1,.67.83c.5,1.86-1.09,6.79-2.94,9.1-2.2,2.74-9.69,4.57-10.49,4.76-1.84.92-30.75,15.19-38.34,16.93A4.17,4.17,0,0,1,168.18,158.15Z" fill="#231f20"></path><path d="M154.66,117.75a.52.52,0,0,1-.43-.24l-5.64-9.07a.49.49,0,0,1,.16-.69.51.51,0,0,1,.69.16l5.64,9.07a.51.51,0,0,1-.42.77Z" fill="#231f20"></path><path d="M140.14,134.1a.49.49,0,0,1-.35-.15l-9.3-9.48a.5.5,0,1,1,.71-.7l9.3,9.48a.5.5,0,0,1,0,.71A.54.54,0,0,1,140.14,134.1Z" fill="#231f20"></path><path d="M196.19,125.11s3.75-5.51,5-5.77,8.45,1.54,7.24,2.3-5.1.6-5.1.6-1.52,2.29-3,4" fill="#fff"></path><path d="M200.36,126.78a.48.48,0,0,1-.32-.11A.52.52,0,0,1,200,126c1.41-1.71,2.92-4,2.93-4a.5.5,0,0,1,.44-.22,16,16,0,0,0,4.45-.36c-1.26-.66-5.57-1.73-6.51-1.55-.64.13-2.93,3-4.68,5.57a.5.5,0,0,1-.83-.57c.91-1.33,4-5.71,5.31-6,1-.2,7.41,1.05,7.92,2.34a.71.71,0,0,1-.32.88c-1.15.72-4.12.7-5.1.68-.43.63-1.64,2.41-2.84,3.85A.48.48,0,0,1,200.36,126.78Z" fill="#231f20"></path><path d="M216.1,126.43c-.29-.71-1.7-.14-1.41.57S216.39,127.15,216.1,126.43Z" fill="#fff"></path><path d="M212.66,126c-.56.53.42,1.55,1,1S213.21,125.44,212.66,126Z" fill="#fff"></path><path d="M213.9,127.8c-.54.55.52,1.58,1,1S214.43,127.25,213.9,127.8Z" fill="#fff"></path><path d="M212.19,127.53c-1,.42-.64,1.39.4,1S213.23,127.11,212.19,127.53Z" fill="#fff"></path><path d="M205.49,124.17a.25.25,0,0,1-.23-.16.26.26,0,0,1,.14-.33l3.71-1.38a.25.25,0,0,1,.32.15.26.26,0,0,1-.14.32l-3.71,1.38Z" fill="#fff"></path><path d="M208.92,124.37a.22.22,0,0,1-.13,0L206,122.6a.26.26,0,0,1-.08-.35.24.24,0,0,1,.34-.08l2.84,1.74a.25.25,0,0,1-.13.46Z" fill="#fff"></path><path d="M151.4,93.23c-4.72.15-9.84-2.3-11.21-6.8a9.83,9.83,0,0,0,4.11.78c-2.9-4.73-5.12-10.08-5-15.62S142.08,60.31,147,57.8a19.3,19.3,0,0,1,8.67-1.71c2,0,4.2.15,5.85,1.35L157.23,54a18.93,18.93,0,0,1,16,4.61l-1.39-4.56a18.47,18.47,0,0,1,9.68,9.3c1.42,3,2.71,10.74-3.26,9.79.29,0-4,6.51-4.48,7.06a54.64,54.64,0,0,1-6.35,5.41c-4.65,3.71-9.23,7.11-15.51,7.57Z" fill="#fff"></path><path d="M151,93.74c-4.59,0-9.84-2.41-11.28-7.17a.5.5,0,0,1,.67-.6,9.21,9.21,0,0,0,3,.72c-3.19-5.41-4.71-10.36-4.64-15.11.09-6.2,3.24-11.79,8-14.23a19.47,19.47,0,0,1,8.9-1.76,16.32,16.32,0,0,1,2.93.19l-1.71-1.36a.48.48,0,0,1-.18-.51.51.51,0,0,1,.39-.37,19.49,19.49,0,0,1,15.11,3.64l-.89-3a.48.48,0,0,1,.14-.52.49.49,0,0,1,.52-.09,19,19,0,0,1,10,9.55c1.11,2.38,2,7,.27,9.2a3.77,3.77,0,0,1-3.69,1.34,67.86,67.86,0,0,1-4.41,6.86,39.25,39.25,0,0,1-5,4.32c-.49.38-1,.75-1.45,1.14-4.93,3.93-9.52,7.22-15.78,7.67a4.53,4.53,0,0,1-.52,0H151Zm.4-.51h0Zm-10.35-6c1.75,3.75,6.36,5.57,10.34,5.46l.48,0c6-.43,10.43-3.64,15.23-7.46l1.45-1.15a38.38,38.38,0,0,0,4.84-4.2,74.39,74.39,0,0,0,4.35-6.73s0,0,0-.08a.5.5,0,0,1,.57-.42,3,3,0,0,0,3.12-.9c1.38-1.84.66-5.93-.39-8.18A18.08,18.08,0,0,0,172.62,55l1.07,3.52a.5.5,0,0,1-.82.51,18.47,18.47,0,0,0-14.43-4.66l3.42,2.7a.51.51,0,0,1,.09.7.51.51,0,0,1-.69.1c-1.56-1.14-3.67-1.29-5.56-1.26a18.52,18.52,0,0,0-8.45,1.66c-4.47,2.27-7.41,7.51-7.49,13.35-.07,4.78,1.56,9.8,5,15.34a.5.5,0,0,1,0,.5.52.52,0,0,1-.43.27A10.31,10.31,0,0,1,141.05,87.27Z" fill="#231f20"></path><path d="M178.06,82s2.77,7.75,1.51,8.91-4-.5-4-.5" fill="#fff"></path><path d="M178.36,91.84a7.14,7.14,0,0,1-3.1-1,.5.5,0,0,1-.17-.69.48.48,0,0,1,.68-.17c.65.38,2.67,1.3,3.47.56.6-.56-.37-4.78-1.65-8.37a.5.5,0,0,1,.3-.64.49.49,0,0,1,.64.3c.68,1.89,2.77,8.16,1.38,9.45A2.2,2.2,0,0,1,178.36,91.84Z" fill="#231f20"></path><path d="M179.29,73c2.24,3,.23,7.62-.57,10.77q-1.68,6.63-3.67,13.18c-.84,2.77-8.13,1-9.2-.12l-1.6,11.38s-3.72.09-8.92-4.06-4.91-5.56-4.91-5.56l3.64-12.69s4.79,1.22,9-3.8,6.29-13.85,6.29-13.85S177.1,70.06,179.29,73Z" fill="#fff"></path><path d="M164.23,108.68c-.46,0-4.16-.14-9.21-4.17s-5.17-5.65-5.09-6.05l3.65-12.73a.49.49,0,0,1,.6-.34c.18,0,4.56,1.06,8.54-3.65s6.17-13.54,6.19-13.63a.49.49,0,0,1,.6-.37c.32.07,7.91,1.91,10.18,4.93,2,2.68.89,6.46,0,9.5-.18.6-.35,1.17-.48,1.69-1.12,4.4-2.36,8.85-3.68,13.2a2.56,2.56,0,0,1-2.11,1.68,12.67,12.67,0,0,1-7.19-1.07l-1.48,10.58a.51.51,0,0,1-.48.43Zm-13.32-10s.22,1.42,4.74,5c4,3.18,7.09,3.8,8.17,3.92l1.53-10.91a.5.5,0,0,1,.86-.28c.61.66,4.55,1.87,7,1.31.76-.18,1.22-.51,1.37-1,1.32-4.34,2.55-8.77,3.67-13.16.14-.53.31-1.11.49-1.72.83-2.82,1.87-6.34.16-8.62h0c-1.76-2.33-7.44-4-9.13-4.44-.51,2-2.53,9.13-6.28,13.56s-7.69,4.23-9.07,4L150.9,98.69Z" fill="#231f20"></path><path d="M175.75,93.59s-1.46-.5-5.1-4.77" fill="#fff"></path><path d="M175.75,94.09l-.16,0c-.16,0-1.69-.66-5.32-4.91a.51.51,0,0,1,.06-.71.49.49,0,0,1,.7.06c3.43,4,4.88,4.62,4.9,4.62a.51.51,0,0,1,.29.64A.5.5,0,0,1,175.75,94.09Z" fill="#231f20"></path><path d="M168.87,82.77a6.2,6.2,0,0,0-.5-3.35,8.61,8.61,0,0,0-1.11-2.4,3,3,0,0,0-2.2-1.32,2.75,2.75,0,0,0-2.08,1,5.25,5.25,0,0,0-1.09,2.06,9.76,9.76,0,0,0,2.31,9.51l-.18-.33" fill="#fff"></path><path d="M164.2,88.72a.51.51,0,0,1-.36-.15,10.36,10.36,0,0,1-2.43-10,5.71,5.71,0,0,1,1.2-2.25,3.21,3.21,0,0,1,2.46-1.11,3.49,3.49,0,0,1,2.6,1.52,9.7,9.7,0,0,1,1.18,2.54,6.69,6.69,0,0,1,.5,3.62.48.48,0,0,1-.6.37.5.5,0,0,1-.37-.6,5.88,5.88,0,0,0-.48-3.07,8.22,8.22,0,0,0-1-2.27A2.48,2.48,0,0,0,165,76.2a2.28,2.28,0,0,0-1.69.79,4.57,4.57,0,0,0-1,1.87,9.35,9.35,0,0,0,1.78,8.55.5.5,0,0,1,.32.24l.17.32a.5.5,0,0,1-.13.65A.57.57,0,0,1,164.2,88.72Z" fill="#231f20"></path><path d="M165.85,96.8s-3.48-2.09-4.6-5.11c0,0-1.41,6.81,3.88,10.18Z" fill="#231f20"></path><path d="M165.13,102.37a.5.5,0,0,1-.26-.08c-5.53-3.52-4.13-10.63-4.11-10.7a.5.5,0,0,1,.45-.4.49.49,0,0,1,.5.33c1,2.81,4.36,4.84,4.39,4.86a.48.48,0,0,1,.24.49l-.71,5.07a.48.48,0,0,1-.29.38A.46.46,0,0,1,165.13,102.37Zm-3.54-8.93c0,2,.36,5.35,3.16,7.55l.56-3.94A13.71,13.71,0,0,1,161.59,93.44Z" fill="#231f20"></path><ellipse cx="176.29" cy="78.33" rx="1.63" ry="0.64" transform="translate(34.33 208.95) rotate(-66.57)" fill="#231f20"></ellipse><line x1="177.93" y1="77.41" x2="175.19" y2="75.22" fill="#fff"></line><path d="M177.93,77.91a.51.51,0,0,1-.31-.11l-2.74-2.19a.5.5,0,0,1,.62-.78L178.24,77a.49.49,0,0,1,.08.7A.51.51,0,0,1,177.93,77.91Z" fill="#231f20"></path><path d="M198.74,170.33h0l-33.37-3.19a.43.43,0,0,1-.4-.48.44.44,0,0,1,.48-.4l33.37,3.19a.44.44,0,0,1,0,.88Z" fill="#fff"></path><path d="M332.22,109.89s16.67,6.44,15.34,13.5-8,33.28-8,33.28h-5.49s8.8-29.52,8.28-33.28-10.17-7.19-10.17-7.19Z" fill="#231f20"></path><path d="M339.6,157.17h-5.49a.49.49,0,0,1-.4-.2.53.53,0,0,1-.08-.44c3-10.17,8.66-30.18,8.27-33.07s-7.24-5.86-9.85-6.79a.5.5,0,0,1-.33-.47v-6.31a.49.49,0,0,1,.22-.41.48.48,0,0,1,.46-.06c.7.27,17.05,6.68,15.65,14.06-1.33,7-7.9,33.05-8,33.32A.48.48,0,0,1,339.6,157.17Zm-4.82-1h4.43c.81-3.24,6.62-26.37,7.86-32.87,1.09-5.8-11.28-11.38-14.35-12.67v5.22c1.92.71,9.66,3.8,10.17,7.47S336.1,151.72,334.78,156.17Z" fill="#231f20"></path><polygon points="330.33 50.87 305.37 68.54 305.37 142.02 330.33 142.02 330.33 50.87" fill="#fff"></polygon><path d="M330.33,50.87V142h-25V68.54l25-17.67m0-1a1,1,0,0,0-.6.19l-25,17.67a1.06,1.06,0,0,0-.44.84V142a1,1,0,0,0,1,1h25a1,1,0,0,0,1-1V50.87a1,1,0,0,0-.56-.91,1,1,0,0,0-.47-.12Z" fill="#231f20"></path><rect x="330.33" y="50.87" width="3.78" height="91.14" fill="#231f20"></rect><path d="M334.11,50.87V142h-3.78V50.87h3.78m0-1h-3.78a1,1,0,0,0-1,1V142a1,1,0,0,0,1,1h3.78a1,1,0,0,0,1-1V50.87a1,1,0,0,0-1-1Z" fill="#231f20"></path><rect x="318.7" y="154.88" width="26.57" height="2.46" rx="1.08" fill="#231f20"></rect><path d="M344.19,157.84H319.78a1.58,1.58,0,0,1-1.58-1.58V156a1.57,1.57,0,0,1,1.58-1.57h24.41a1.57,1.57,0,0,1,1.58,1.57v.31A1.58,1.58,0,0,1,344.19,157.84Zm-24.41-2.46a.58.58,0,0,0-.58.57v.31a.58.58,0,0,0,.58.58h24.41a.58.58,0,0,0,.58-.58V156a.58.58,0,0,0-.58-.57Z" fill="#231f20"></path><rect x="295.15" y="157.34" width="59.29" height="11.35" fill="#fff"></rect><path d="M354.44,169.2H295.15a.51.51,0,0,1-.51-.52V157.34a.51.51,0,0,1,.51-.52h59.29a.52.52,0,0,1,.52.52v11.34A.52.52,0,0,1,354.44,169.2Zm-58.77-1h58.26V157.85H295.67Z" fill="#231f20"></path><polygon points="295.15 157.34 283.05 163.01 283.05 170.72 295.15 168.68 295.15 157.34" fill="#fff"></polygon><path d="M283.05,171.24a.51.51,0,0,1-.33-.13.49.49,0,0,1-.19-.39V163a.53.53,0,0,1,.3-.47l12.1-5.67a.52.52,0,0,1,.74.47v11.34a.51.51,0,0,1-.43.51l-12.1,2Zm.52-7.9v6.77l11.07-1.86v-10.1Z" fill="#231f20"></path><path d="M295.15,168.68v65.87s58.06.56,58.06,0V168.68Z" fill="#fff"></path><path d="M336,235.32c-8.63,0-21.54-.07-40.85-.26a.51.51,0,0,1-.51-.51V168.68a.51.51,0,0,1,.51-.51h58.06a.51.51,0,0,1,.52.51v65.87a.54.54,0,0,1-.16.37C353.44,235.05,353.17,235.32,336,235.32ZM295.67,234c21.54.2,53.2.39,57,.08V169.2h-57Z" fill="#231f20"></path><polygon points="283.05 170.72 283.05 224.71 295.15 234.55 295.15 168.68 283.05 170.72" fill="#fff"></polygon><path d="M295.15,235.06a.54.54,0,0,1-.32-.11l-12.11-9.84a.51.51,0,0,1-.19-.4v-54a.52.52,0,0,1,.43-.51l12.11-2a.54.54,0,0,1,.42.12.53.53,0,0,1,.18.39v65.87a.51.51,0,0,1-.29.46A.48.48,0,0,1,295.15,235.06Zm-11.58-10.59,11.07,9V169.29l-11.07,1.87Z" fill="#231f20"></path><path d="M306.26,128.87a.51.51,0,0,1-.49-.41.5.5,0,0,1,.4-.58l22.53-4.31a.5.5,0,1,1,.19,1l-22.53,4.31Z" fill="#d1d3d4"></path><path d="M317,126.32a.51.51,0,0,1-.5-.44c-.75-6.14-3.82-17.57-10.53-21.44a.5.5,0,0,1,.5-.86c7.05,4.06,10.25,15.85,11,22.18a.51.51,0,0,1-.44.56Z" fill="#d1d3d4"></path><path d="M322.39,107.7h-.1a.5.5,0,0,1-.39-.59c2.08-9.74,6.53-11.48,6.72-11.55a.5.5,0,0,1,.64.29.5.5,0,0,1-.29.65s-4.14,1.69-6.09,10.82A.5.5,0,0,1,322.39,107.7Z" fill="#d1d3d4"></path><path d="M320.36,126.06a.5.5,0,0,1-.5-.5,83.94,83.94,0,0,1,.67-10.77.5.5,0,0,1,.55-.44.51.51,0,0,1,.44.56,84,84,0,0,0-.66,10.65A.5.5,0,0,1,320.36,126.06Z" fill="#d1d3d4"></path><path d="M308.06,75.28a.46.46,0,0,1-.23,0,.52.52,0,0,1-.27-.45V71.66a.49.49,0,0,1,.21-.4l10.5-7.52a.51.51,0,0,1,.52,0,.52.52,0,0,1,.27.45v3.21a.51.51,0,0,1-.21.41l-10.5,7.42A.52.52,0,0,1,308.06,75.28Zm.5-3.36v1.9l9.5-6.72v-2Z" fill="#d1d3d4"></path><path d="M313.68,71.31a.51.51,0,0,1-.5-.5v-3.1a.51.51,0,0,1,.5-.5.5.5,0,0,1,.5.5v3.1A.5.5,0,0,1,313.68,71.31Z" fill="#d1d3d4"></path><path d="M325.59,63.39c-.94,0-1.68-1.07-1.68-2.44s.74-2.43,1.68-2.43,1.69,1.07,1.69,2.43S326.54,63.39,325.59,63.39Zm0-3.87c-.28,0-.68.56-.68,1.43s.4,1.44.68,1.44.69-.56.69-1.44S325.87,59.52,325.59,59.52Z" fill="#d1d3d4"></path><path d="M314.89,101.77a.53.53,0,0,1-.27-.08.5.5,0,0,1-.23-.42v-7a.5.5,0,0,1,.27-.45c1.54-.8,6.62-3.44,7.2-3.59a.51.51,0,0,1,.43.1.49.49,0,0,1,.19.39v7.09a.5.5,0,0,1-.28.45l-7.09,3.41A.59.59,0,0,1,314.89,101.77Zm.5-7.15v5.85l6.09-2.92v-6C320.21,92.13,317.37,93.58,315.39,94.62Z" fill="#d1d3d4"></path><path d="M311.34,88.32a.48.48,0,0,1-.26-.07.52.52,0,0,1-.24-.43V80.87a.51.51,0,0,1,.27-.44c1.54-.81,6.62-3.44,7.2-3.59a.51.51,0,0,1,.43.09.51.51,0,0,1,.19.4v7.09a.5.5,0,0,1-.28.45l-7.09,3.4A.42.42,0,0,1,311.34,88.32Zm.5-7.15V87l6.09-2.93v-6C316.66,78.69,313.83,80.14,311.84,81.17Z" fill="#d1d3d4"></path><path d="M308.65,128.32a.32.32,0,0,1-.25-.08.52.52,0,0,1-.21-.33,22.56,22.56,0,0,1-.17-2.79,3.17,3.17,0,0,1,.41-1.75,2,2,0,0,1,.81-.65A1.57,1.57,0,0,1,309,122a2.1,2.1,0,0,1,.42-1.52A1.75,1.75,0,0,1,310,120h0a1.91,1.91,0,0,1,1.88.13,1.68,1.68,0,0,1,.76,1.53,1.64,1.64,0,0,1-.18.69,1.7,1.7,0,0,1,.35.19,2,2,0,0,1,.66.86,8.29,8.29,0,0,1,.36,1.52c.05.25.09.46.12.56s.08.6.15,1.41a.5.5,0,0,1-.4.54C310,128.11,309,128.32,308.65,128.32Zm2.18-7.54a.93.93,0,0,0-.4.09h0a.8.8,0,0,0-.26.24,1.07,1.07,0,0,0-.23.77.56.56,0,0,0,.37.45.49.49,0,0,1,.39.39.51.51,0,0,1-.22.51,3.36,3.36,0,0,1-.6.3,1.28,1.28,0,0,0-.61.39,2.35,2.35,0,0,0-.25,1.21c0,.59,0,1.43.1,2.13.83-.15,2.6-.49,3.94-.76,0-.38-.06-.73-.08-.81s-.07-.34-.13-.61a10.53,10.53,0,0,0-.29-1.3,1.08,1.08,0,0,0-.34-.46,1.54,1.54,0,0,0-.75-.19.51.51,0,0,1-.45-.39.5.5,0,0,1,.24-.55.79.79,0,0,0,.39-.61.74.74,0,0,0-.32-.65A.91.91,0,0,0,310.83,120.78Zm-.61-.36h0Z" fill="#d1d3d4"></path><path d="M328.79,119.62a.51.51,0,0,1-.46-.31c0-.06-2.05-5.1-5-4.69A7,7,0,0,0,320.1,116c-.82.56-1.59,1.09-2.54.41a1.25,1.25,0,0,1-.54-1,2.23,2.23,0,0,1,.15-.82.65.65,0,0,1-.31,0,1.05,1.05,0,0,1-.62-.76c-.25-1.1.67-3,2.47-5,2.54-2.84,9.7-4,10-4a.51.51,0,0,1,.57.42.51.51,0,0,1-.42.57c-.07,0-7.11,1.14-9.42,3.72s-2.37,3.94-2.21,4.13a3.9,3.9,0,0,0,1.08-.79,11.18,11.18,0,0,1,1-1,.5.5,0,0,1,.71.7,11.58,11.58,0,0,1-1,1,3.66,3.66,0,0,0-1,1.82.27.27,0,0,0,.12.21c.34.24.56.15,1.4-.43a8,8,0,0,1,3.68-1.55c3.7-.52,5.95,5.07,6,5.31a.5.5,0,0,1-.28.65A.58.58,0,0,1,328.79,119.62Z" fill="#d1d3d4"></path><path d="M320.36,111a.5.5,0,0,1-.32-.88l.66-.57a.5.5,0,0,1,.65.76l-.66.57A.52.52,0,0,1,320.36,111Z" fill="#d1d3d4"></path><path d="M313.6,123.93a.55.55,0,0,1-.5-.51,26.35,26.35,0,0,1,.91-3.57.5.5,0,1,1,1,.27c-.4,1.45-.84,3.11-.87,3.32a.48.48,0,0,1-.47.49Z" fill="#d1d3d4"></path><polygon points="292.65 172.61 285.34 173.75 285.34 222.98 292.65 227.98 292.65 172.61" fill="#231f20"></polygon><path d="M292.65,228.48a.49.49,0,0,1-.28-.09l-7.31-5a.48.48,0,0,1-.22-.41V173.75a.49.49,0,0,1,.42-.49l7.32-1.14a.52.52,0,0,1,.4.11.52.52,0,0,1,.17.38V228a.51.51,0,0,1-.26.44A.53.53,0,0,1,292.65,228.48Zm-6.81-5.76,6.31,4.31V173.2l-6.31,1Z" fill="#231f20"></path><path d="M292.65,199.54l-.17,0-7-2.55a.5.5,0,1,1,.34-.93l7,2.55a.49.49,0,0,1,.3.63A.48.48,0,0,1,292.65,199.54Z" fill="#fff"></path><path d="M292.65,226a.56.56,0,0,1-.27-.08l-5.51-3.53a.54.54,0,0,1-.23-.43l.22-10.47a.5.5,0,0,1,.23-.41.51.51,0,0,1,.48,0l5.29,2.46a.5.5,0,1,1-.42.9l-4.6-2.13-.2,9.42,5.28,3.38a.5.5,0,0,1,.15.69A.48.48,0,0,1,292.65,226Z" fill="#fff"></path><path d="M287.36,212a.5.5,0,0,1-.13-1l5.3-1.39a.49.49,0,0,1,.6.35.5.5,0,0,1-.35.61l-5.3,1.4Z" fill="#fff"></path><path d="M285.34,223a.5.5,0,0,1-.15-1l1.8-.56a.51.51,0,0,1,.63.33.5.5,0,0,1-.33.62l-1.8.56A.39.39,0,0,1,285.34,223Z" fill="#fff"></path><path d="M265.58,245c-4.38,0-7.28-2.78-7.88-5.57a4.82,4.82,0,0,1-.13-1.12A24.6,24.6,0,0,1,253.1,236c-5.22-3.41-9.48-8.93-13-16.89-8.65-19.42-8.64-40.8-8.63-61.47v-.59c0-14-1.68-32.65-16.41-33.38a.5.5,0,0,1-.48-.52.5.5,0,0,1,.53-.47c15.58.77,17.37,20,17.36,34.37v.59c0,20.57,0,41.84,8.54,61.06,3.47,7.78,7.61,13.17,12.66,16.47a23.7,23.7,0,0,0,4,2.11c.38-2,1.95-3.69,4.47-4.79,2.35-1,5.21-1.18,8.74-.44a4.93,4.93,0,0,1,2.77,1.29,3,3,0,0,1,.77,2.27,4.29,4.29,0,0,1-1.42,2.89,8.22,8.22,0,0,1-5,1.58,25.11,25.11,0,0,1-9.41-1.39,5.07,5.07,0,0,0,.09.54c.52,2.37,3.16,4.82,7.09,4.78,13.28-.25,23.55-13.52,25.46-25.67a.5.5,0,0,1,1,.15c-2,12.55-12.63,26.26-26.42,26.51Zm-7-7.36a24.36,24.36,0,0,0,9.34,1.43,7.19,7.19,0,0,0,4.38-1.34,3.23,3.23,0,0,0,1.08-2.19,2,2,0,0,0-.5-1.54,4.14,4.14,0,0,0-2.24-1c-3.32-.69-6-.56-8.14.38S258.88,235.92,258.61,237.66Z" fill="#231f20"></path></g></svg>