<?xml version="1.0" standalone="no"?>
<!DOCTYPE svg PUBLIC "-//W3C//DTD SVG 20010904//EN"
 "http://www.w3.org/TR/2001/REC-SVG-20010904/DTD/svg10.dtd">
<svg version="1.0" xmlns="http://www.w3.org/2000/svg"
 width="900.000000pt" height="642.000000pt" viewBox="0 0 900.000000 642.000000"
 preserveAspectRatio="xMidYMid meet">

<g transform="translate(0.000000,642.000000) scale(0.100000,-0.100000)"
fill="#000000" stroke="none">
<path d="M3710 6356 c-565 -194 -1237 -503 -1664 -765 -548 -337 -1028 -777
-1373 -1258 -433 -602 -624 -1126 -665 -1820 -19 -316 11 -681 77 -943 109
-432 327 -844 576 -1090 235 -233 522 -373 904 -441 151 -27 524 -38 673 -19
269 33 503 101 717 209 530 268 843 665 938 1186 29 160 31 537 4 715 -101
653 -445 1051 -1130 1306 -253 94 -521 146 -869 170 -71 5 -98 10 -98 19 0 28
71 259 105 341 193 467 477 780 1040 1146 279 182 544 318 890 457 19 8 20 18
20 419 0 272 -3 412 -10 411 -5 0 -66 -20 -135 -43z"/>
<path d="M8810 6366 c-740 -256 -1495 -624 -1960 -956 -580 -415 -1022 -892
-1344 -1454 -310 -539 -441 -1077 -423 -1741 16 -575 160 -1052 447 -1480 168
-249 348 -409 603 -534 200 -98 353 -142 617 -177 179 -23 536 -15 710 16 363
64 699 221 982 457 266 222 448 527 517 868 72 353 41 809 -74 1121 -145 389
-390 646 -816 854 -311 152 -671 239 -1090 265 l-107 7 29 111 c93 355 288
690 549 946 183 180 507 416 803 585 142 82 445 229 579 282 l98 39 0 413 c0
323 -3 412 -12 411 -7 0 -56 -15 -108 -33z"/>
</g>
</svg>
