<?xml version="1.0" standalone="no"?>
<!DOCTYPE svg PUBLIC "-//W3C//DTD SVG 20010904//EN"
 "http://www.w3.org/TR/2001/REC-SVG-20010904/DTD/svg10.dtd">
<svg version="1.0" xmlns="http://www.w3.org/2000/svg"
 width="512.000000pt" height="512.000000pt" viewBox="0 0 512.000000 512.000000"
 preserveAspectRatio="xMidYMid meet">

<g transform="translate(0.000000,512.000000) scale(0.100000,-0.100000)"
fill="#000000" stroke="none">
<path d="M2012 5109 c-182 -30 -357 -161 -433 -324 -58 -123 -58 -121 -59
-787 -2 -837 -4 -768 19 -768 29 0 85 43 103 80 16 31 18 71 18 376 l0 340 25
51 c28 56 77 95 140 112 27 7 288 11 797 11 l758 0 24 -37 c50 -76 56 -128 56
-496 0 -323 1 -341 20 -372 18 -29 72 -65 98 -65 16 0 22 167 22 596 l0 413
29 15 c47 25 118 102 145 159 38 78 46 156 46 445 l0 262 -877 -1 c-483 -1
-902 -5 -931 -10z"/>
<path d="M2005 3795 c-27 -27 -33 -79 -12 -106 25 -33 55 -39 202 -39 l147 0
29 29 c37 38 39 82 4 116 -24 24 -27 25 -185 25 -158 0 -161 -1 -185 -25z"/>
<path d="M2725 3795 c-31 -30 -33 -83 -6 -116 19 -23 25 -24 180 -27 l161 -3
30 30 c32 31 37 59 18 94 -23 43 -36 46 -201 47 -155 0 -158 -1 -182 -25z"/>
<path d="M2165 3598 c-11 -6 -25 -19 -32 -27 -16 -21 -17 -54 0 -48 6 2 20 0
30 -5 13 -7 17 -22 17 -72 0 -67 -14 -92 -44 -80 -14 5 -16 -3 -16 -55 0 -52
4 -66 25 -86 34 -35 78 -33 116 5 l30 30 -3 150 c-3 134 -5 152 -23 170 -25
25 -74 34 -100 18z"/>
<path d="M2852 3585 c-41 -35 -44 -71 -4 -70 26 0 27 -2 30 -63 3 -70 -9 -96
-39 -87 -17 6 -19 0 -19 -55 0 -51 4 -65 25 -85 27 -27 79 -33 106 -12 33 25
39 55 39 196 0 131 -1 142 -22 165 -35 40 -78 43 -116 11z"/>
<path d="M2210 2705 c-11 -13 -10 -27 4 -77 29 -105 101 -188 206 -237 46 -21
69 -25 140 -25 108 1 180 27 249 92 80 75 135 214 99 250 -7 7 -36 12 -64 12
l-53 0 -3 -37 c-5 -59 -22 -64 -246 -61 -178 3 -195 5 -208 22 -8 11 -14 32
-14 48 0 27 -2 28 -49 28 -31 0 -53 -5 -61 -15z"/>
<path d="M3419 2323 c-91 -139 -285 -302 -431 -362 l-55 -24 -5 -171 c-5 -142
-9 -180 -27 -226 -29 -77 -72 -132 -135 -174 -187 -124 -429 -59 -529 143
l-32 65 -3 181 -4 181 -65 29 c-153 66 -328 209 -417 338 -22 31 -42 57 -46
57 -12 0 -154 -153 -188 -203 -50 -72 -110 -204 -131 -287 l-19 -75 -118 -30
c-190 -49 -308 -115 -415 -234 -119 -131 -175 -266 -192 -463 l-11 -126 29
-39 c47 -62 273 -283 363 -353 147 -115 283 -200 457 -285 485 -238 1007 -314
1543 -224 543 91 1070 378 1433 782 l89 99 0 101 c0 286 -146 533 -389 661
-63 32 -189 77 -258 91 -29 6 -33 11 -44 63 -35 174 -166 391 -307 509 l-50
42 -43 -66z m-1285 -1185 c14 -19 16 -73 16 -383 0 -404 0 -405 -65 -405 -65
0 -65 1 -65 405 0 404 0 405 65 405 24 0 39 -7 49 -22z m978 5 c17 -15 18 -40
18 -386 0 -412 1 -407 -66 -407 -27 0 -36 6 -49 31 -14 26 -16 76 -12 389 3
269 7 363 17 375 17 20 69 19 92 -2z"/>
</g>
</svg>
